<svg xmlns="http://www.w3.org/2000/svg" xmlns:xlink="http://www.w3.org/1999/xlink" style="isolation:isolate;" viewBox="634 373.026 50 55" x="0px" y="0px"><defs><clipPath id="a"><rect x="634" y="373.026" width="50" height="54.948"/></clipPath></defs><g clip-path="url(#a)"><path d=" M 652.095 389.543 C 652.139 389.539 652.181 389.555 652.209 389.584 C 652.241 389.612 652.26 389.651 652.263 389.692 C 652.266 389.736 652.251 389.778 652.222 389.806 C 652.193 389.838 652.155 389.857 652.114 389.86 C 651.853 389.873 651.596 389.914 651.345 389.984 C 651.063 390.06 650.786 390.159 650.519 390.283 C 650.218 390.422 649.922 390.581 649.64 390.759 C 649.268 390.994 648.906 391.251 648.563 391.531 C 647.299 389.247 645.987 386.989 644.628 384.762 C 644.091 383.889 643.541 383.025 642.979 382.171 C 642.509 381.453 642.02 380.748 641.515 380.052 C 641.108 379.49 640.683 378.94 640.238 378.407 C 639.898 377.997 639.536 377.606 639.149 377.241 C 638.879 376.978 638.58 376.749 638.259 376.555 C 638.145 376.488 638.024 376.434 637.897 376.393 C 637.802 376.361 637.704 376.342 637.602 376.342 C 637.484 376.342 637.37 376.374 637.272 376.438 C 637.157 376.52 637.065 376.628 636.999 376.752 C 636.979 376.79 636.948 376.819 636.906 376.832 C 636.865 376.844 636.824 376.838 636.786 376.819 C 636.748 376.8 636.719 376.768 636.706 376.727 C 636.694 376.685 636.7 376.644 636.719 376.606 C 636.808 376.434 636.935 376.288 637.094 376.177 C 637.246 376.076 637.424 376.022 637.605 376.025 C 637.739 376.025 637.872 376.047 637.999 376.091 C 638.145 376.139 638.288 376.203 638.421 376.282 C 638.764 376.488 639.082 376.733 639.368 377.013 C 639.765 377.387 640.137 377.784 640.483 378.204 C 640.934 378.744 641.363 379.296 641.772 379.865 C 642.281 380.564 642.77 381.275 643.246 381.996 C 643.808 382.854 644.361 383.721 644.898 384.597 C 646.197 386.722 647.451 388.872 648.661 391.051 C 648.922 390.851 649.192 390.667 649.471 390.489 C 649.767 390.305 650.072 390.14 650.386 389.994 C 650.669 389.863 650.961 389.759 651.263 389.676 C 651.533 389.603 651.812 389.558 652.095 389.543 Z " fill="rgb(30,30,200)"/><path d=" M 665.752 389.86 C 665.711 389.857 665.673 389.838 665.644 389.806 C 665.616 389.778 665.6 389.736 665.603 389.692 C 665.606 389.651 665.625 389.612 665.657 389.584 C 665.686 389.555 665.727 389.539 665.771 389.543 C 666.054 389.558 666.334 389.603 666.604 389.676 C 666.905 389.759 667.198 389.863 667.48 389.994 C 667.795 390.14 668.1 390.305 668.395 390.489 C 668.674 390.667 668.944 390.851 669.205 391.051 C 670.415 388.872 671.67 386.722 672.969 384.597 C 673.505 383.721 674.058 382.854 674.62 381.996 C 675.097 381.275 675.586 380.564 676.094 379.865 C 676.504 379.296 676.933 378.744 677.384 378.204 C 677.73 377.784 678.101 377.387 678.498 377.013 C 678.784 376.733 679.102 376.488 679.445 376.282 C 679.578 376.203 679.721 376.139 679.867 376.091 C 679.994 376.047 680.128 376.025 680.261 376.025 C 680.442 376.022 680.62 376.076 680.773 376.177 C 680.931 376.288 681.058 376.434 681.147 376.606 C 681.166 376.644 681.173 376.685 681.16 376.727 C 681.147 376.768 681.119 376.8 681.081 376.819 C 681.043 376.838 681.001 376.844 680.96 376.832 C 680.919 376.819 680.887 376.79 680.868 376.752 C 680.801 376.628 680.709 376.52 680.595 376.438 C 680.496 376.374 680.382 376.342 680.264 376.342 C 680.163 376.342 680.064 376.361 679.969 376.393 C 679.842 376.434 679.721 376.488 679.607 376.555 C 679.286 376.749 678.988 376.978 678.718 377.241 C 678.33 377.606 677.968 377.997 677.628 378.407 C 677.183 378.94 676.758 379.49 676.351 380.052 C 675.846 380.748 675.357 381.453 674.887 382.171 C 674.325 383.025 673.775 383.889 673.239 384.762 C 671.879 386.989 670.567 389.247 669.303 391.531 C 668.96 391.251 668.598 390.994 668.227 390.759 C 667.944 390.581 667.649 390.422 667.347 390.283 C 667.08 390.159 666.804 390.06 666.521 389.984 C 666.27 389.914 666.013 389.873 665.752 389.86 Z " fill="rgb(30,30,200)"/><path d=" M 660.153 418.989 L 659.365 420.018 C 659.175 420.278 658.927 420.491 658.644 420.644 C 658.387 420.78 658.101 420.853 657.809 420.85 C 657.52 420.847 657.237 420.774 656.986 420.637 C 656.707 420.485 656.465 420.272 656.278 420.018 L 655.49 418.989 L 654.706 417.96 C 654.575 417.795 654.467 417.61 654.385 417.417 C 654.315 417.255 654.28 417.08 654.277 416.902 C 654.274 416.75 654.309 416.597 654.379 416.461 C 654.452 416.324 654.556 416.207 654.683 416.121 C 654.826 416.025 654.982 415.956 655.15 415.914 C 655.347 415.867 655.547 415.844 655.751 415.848 L 657.822 415.848 L 659.892 415.848 C 660.096 415.844 660.296 415.867 660.493 415.914 C 660.661 415.956 660.817 416.025 660.96 416.121 C 661.087 416.207 661.191 416.324 661.264 416.461 C 661.334 416.597 661.369 416.75 661.366 416.902 C 661.363 417.08 661.328 417.255 661.258 417.417 C 661.176 417.61 661.068 417.795 660.937 417.96 L 660.153 418.989 Z  M 659.899 418.795 L 659.114 419.827 C 659.111 419.827 659.111 419.827 659.111 419.827 C 658.949 420.05 658.736 420.231 658.495 420.364 C 658.285 420.475 658.05 420.532 657.812 420.532 C 657.577 420.529 657.345 420.469 657.139 420.358 C 656.9 420.228 656.694 420.047 656.532 419.827 C 656.532 419.827 656.532 419.827 656.529 419.827 L 655.744 418.795 L 654.957 417.766 C 654.957 417.766 654.957 417.766 654.957 417.763 C 654.842 417.62 654.75 417.461 654.677 417.293 C 654.623 417.169 654.595 417.035 654.595 416.899 C 654.591 416.797 654.617 416.699 654.661 416.607 C 654.709 416.518 654.779 416.442 654.864 416.381 C 654.972 416.308 655.096 416.254 655.223 416.222 C 655.395 416.181 655.573 416.162 655.747 416.165 C 655.747 416.165 655.747 416.165 655.751 416.165 L 657.822 416.165 L 659.892 416.165 C 659.896 416.165 659.896 416.165 659.896 416.165 C 660.07 416.162 660.248 416.181 660.42 416.222 C 660.547 416.254 660.671 416.308 660.779 416.381 C 660.864 416.442 660.934 416.518 660.982 416.607 C 661.026 416.699 661.052 416.797 661.048 416.899 C 661.048 417.035 661.02 417.169 660.966 417.293 C 660.893 417.461 660.801 417.62 660.686 417.763 C 660.686 417.766 660.686 417.766 660.686 417.766 L 659.899 418.795 Z " fill-rule="evenodd" fill="rgb(30,30,200)"/><path d=" M 656.203 422.988 C 656.21 423.073 656.26 423.172 656.342 423.276 C 657.29 424.119 658.292 424.135 659.301 423.276 C 659.388 423.166 659.439 423.061 659.444 422.972 C 659.573 422.951 659.699 422.912 659.821 422.86 C 660.097 422.746 660.352 422.59 660.587 422.407 C 660.644 422.36 660.675 422.298 660.686 422.23 C 660.691 422.163 660.67 422.095 660.628 422.038 C 660.587 421.986 660.524 421.949 660.457 421.944 C 660.384 421.933 660.316 421.954 660.264 422.001 C 660.066 422.157 659.852 422.282 659.618 422.381 C 659.441 422.459 659.243 422.501 659.05 422.501 C 658.868 422.501 658.691 422.459 658.53 422.386 C 658.254 422.256 658.019 422.064 657.832 421.824 C 657.618 422.064 657.358 422.251 657.066 422.386 C 656.895 422.459 656.707 422.501 656.52 422.501 C 656.332 422.501 656.15 422.459 655.973 422.381 C 655.765 422.288 655.567 422.163 655.39 422.006 C 655.337 421.959 655.27 421.939 655.202 421.944 C 655.134 421.949 655.067 421.98 655.025 422.032 C 654.978 422.079 654.952 422.152 654.957 422.22 C 654.963 422.288 654.994 422.35 655.046 422.397 C 655.259 422.59 655.504 422.741 655.765 422.86 C 655.906 422.922 656.052 422.967 656.203 422.988 Z " fill="rgb(30,30,200)"/><path d=" M 634.534 425.189 C 634.473 425.246 634.391 425.278 634.305 425.274 C 634.223 425.271 634.143 425.233 634.086 425.173 C 634.029 425.112 633.997 425.03 634 424.944 C 634.003 424.862 634.042 424.782 634.102 424.725 C 635.144 423.759 636.274 422.896 637.478 422.149 C 638.758 421.358 640.102 420.675 641.496 420.113 C 643.008 419.503 644.561 419.002 646.146 418.614 C 647.886 418.188 649.652 417.868 651.431 417.655 C 651.514 417.645 651.599 417.668 651.666 417.718 C 651.733 417.772 651.774 417.849 651.784 417.931 C 651.793 418.014 651.771 418.1 651.72 418.166 C 651.666 418.233 651.59 418.274 651.507 418.284 C 649.754 418.497 648.013 418.814 646.295 419.233 C 644.742 419.611 643.217 420.104 641.731 420.701 C 640.372 421.25 639.06 421.917 637.815 422.689 C 636.643 423.416 635.544 424.252 634.534 425.189 Z " fill="rgb(30,30,200)"/><path d=" M 639.968 427.056 C 639.917 427.123 639.841 427.167 639.755 427.177 C 639.673 427.19 639.587 427.164 639.524 427.113 C 639.457 427.063 639.412 426.986 639.403 426.901 C 639.39 426.818 639.416 426.732 639.466 426.669 C 640.127 425.818 640.867 425.033 641.674 424.322 C 642.522 423.575 643.433 422.902 644.396 422.305 C 645.431 421.666 646.514 421.101 647.632 420.615 C 648.852 420.088 650.103 419.63 651.38 419.252 C 651.46 419.23 651.545 419.237 651.622 419.278 C 651.695 419.319 651.749 419.386 651.774 419.468 C 651.796 419.548 651.79 419.634 651.749 419.71 C 651.707 419.783 651.641 419.837 651.558 419.862 C 650.31 420.234 649.081 420.679 647.883 421.199 C 646.794 421.673 645.739 422.222 644.729 422.845 C 643.796 423.423 642.916 424.077 642.093 424.798 C 641.315 425.484 640.603 426.24 639.968 427.056 Z " fill="rgb(30,30,200)"/><path d=" M 645.733 427.291 C 645.701 427.371 645.644 427.434 645.565 427.469 C 645.488 427.504 645.403 427.507 645.323 427.479 C 645.244 427.447 645.18 427.39 645.145 427.31 C 645.11 427.234 645.107 427.148 645.136 427.069 C 645.384 426.405 645.711 425.776 646.105 425.189 C 646.514 424.588 646.991 424.033 647.521 423.534 C 648.093 423 648.712 422.524 649.376 422.108 C 650.107 421.65 650.869 421.25 651.663 420.91 C 651.739 420.875 651.825 420.875 651.904 420.907 C 651.984 420.939 652.044 420.999 652.079 421.076 C 652.111 421.155 652.114 421.241 652.082 421.32 C 652.05 421.4 651.99 421.46 651.911 421.495 C 651.152 421.822 650.415 422.206 649.713 422.648 C 649.084 423.042 648.496 423.493 647.956 423.998 C 647.458 424.465 647.013 424.982 646.632 425.548 C 646.263 426.091 645.962 426.675 645.733 427.291 Z " fill="rgb(30,30,200)"/><path d=" M 666.2 418.284 C 666.117 418.274 666.041 418.233 665.987 418.166 C 665.936 418.1 665.914 418.014 665.924 417.931 C 665.933 417.849 665.974 417.772 666.041 417.718 C 666.108 417.668 666.194 417.645 666.276 417.655 C 668.055 417.868 669.821 418.188 671.561 418.614 C 673.146 419.002 674.699 419.503 676.211 420.113 C 677.606 420.675 678.949 421.358 680.229 422.149 C 681.433 422.896 682.564 423.759 683.605 424.725 C 683.666 424.782 683.704 424.862 683.707 424.944 C 683.71 425.03 683.678 425.112 683.621 425.173 C 683.564 425.233 683.485 425.271 683.402 425.274 C 683.316 425.278 683.234 425.246 683.173 425.189 C 682.163 424.252 681.064 423.416 679.892 422.689 C 678.647 421.917 677.336 421.25 675.976 420.701 C 674.49 420.104 672.965 419.611 671.412 419.233 C 669.694 418.814 667.953 418.497 666.2 418.284 Z " fill="rgb(30,30,200)"/><path d=" M 666.149 419.862 C 666.067 419.837 666 419.783 665.959 419.71 C 665.917 419.634 665.911 419.548 665.933 419.468 C 665.959 419.386 666.013 419.319 666.086 419.278 C 666.162 419.237 666.248 419.23 666.327 419.252 C 667.604 419.63 668.855 420.088 670.075 420.615 C 671.193 421.101 672.276 421.666 673.311 422.305 C 674.274 422.902 675.185 423.575 676.033 424.322 C 676.84 425.033 677.58 425.818 678.241 426.669 C 678.292 426.732 678.317 426.818 678.304 426.901 C 678.295 426.986 678.25 427.063 678.184 427.113 C 678.12 427.164 678.034 427.19 677.952 427.177 C 677.866 427.167 677.79 427.123 677.739 427.056 C 677.104 426.24 676.392 425.484 675.614 424.798 C 674.791 424.077 673.912 423.423 672.978 422.845 C 671.968 422.222 670.913 421.673 669.824 421.199 C 668.627 420.679 667.397 420.234 666.149 419.862 Z " fill="rgb(30,30,200)"/><path d=" M 665.797 421.495 C 665.717 421.46 665.657 421.4 665.625 421.32 C 665.593 421.241 665.596 421.155 665.628 421.076 C 665.663 420.999 665.723 420.939 665.803 420.907 C 665.882 420.875 665.968 420.875 666.044 420.91 C 666.838 421.25 667.601 421.65 668.331 422.108 C 668.995 422.524 669.614 423 670.186 423.534 C 670.716 424.033 671.193 424.588 671.603 425.189 C 671.996 425.776 672.324 426.405 672.571 427.069 C 672.6 427.148 672.597 427.234 672.562 427.31 C 672.527 427.39 672.463 427.447 672.384 427.479 C 672.305 427.507 672.219 427.504 672.143 427.469 C 672.063 427.434 672.006 427.371 671.974 427.291 C 671.746 426.675 671.444 426.091 671.075 425.548 C 670.694 424.982 670.25 424.465 669.751 423.998 C 669.211 423.493 668.623 423.042 667.994 422.648 C 667.293 422.206 666.556 421.822 665.797 421.495 Z " fill="rgb(30,30,200)"/><path d=" M 667.221 403.042 C 666.306 403.179 665.412 403.606 664.654 404.307 C 664.241 404.854 664.015 405.525 664.015 406.217 L 664.015 406.217 C 664.015 407.059 664.349 407.869 664.946 408.463 C 665.54 409.06 666.35 409.394 667.191 409.394 C 668.033 409.394 668.843 409.06 669.437 408.463 C 670.034 407.869 670.367 407.059 670.367 406.217 C 670.367 405.376 670.034 404.566 669.437 403.972 C 668.85 403.382 668.052 403.049 667.221 403.042 L 667.221 403.042 Z  M 664.75 403.718 C 663.517 404.834 662.673 406.679 662.494 409.076 C 662.633 407.471 663.14 406.165 663.859 405.176 C 663.752 405.509 663.697 405.861 663.697 406.217 L 663.697 406.217 C 663.697 407.145 664.066 408.034 664.72 408.689 C 665.374 409.343 666.264 409.711 667.191 409.711 C 668.119 409.711 669.008 409.343 669.662 408.689 C 670.317 408.034 670.685 407.145 670.685 406.217 C 670.685 405.29 670.317 404.401 669.662 403.746 C 669.37 403.454 669.03 403.219 668.662 403.047 C 669.535 403.189 670.371 403.608 671.07 404.312 C 671.931 406.251 671.399 408.153 670.117 409.394 C 671.683 408.366 672.206 406.56 671.705 403.994 C 669.556 402.353 667.398 402.14 665.711 403.052 C 665.358 403.217 665.033 403.441 664.75 403.718 L 664.75 403.718 Z  M 664.968 406.217 C 664.968 404.99 665.964 403.994 667.191 403.994 C 668.418 403.994 669.415 404.99 669.415 406.217 C 669.415 407.445 668.418 408.441 667.191 408.441 C 665.964 408.441 664.968 407.445 664.968 406.217 Z " fill-rule="evenodd" fill="rgb(30,30,200)"/><path d=" M 648.422 403.042 C 649.337 403.179 650.231 403.606 650.99 404.307 C 651.402 404.854 651.628 405.525 651.628 406.217 C 651.628 407.059 651.294 407.869 650.697 408.463 C 650.103 409.06 649.293 409.394 648.452 409.394 L 648.452 409.394 C 647.61 409.394 646.8 409.06 646.206 408.463 C 645.609 407.869 645.276 407.059 645.276 406.217 C 645.276 405.376 645.609 404.566 646.206 403.972 C 646.793 403.382 647.591 403.049 648.422 403.042 L 648.422 403.042 Z  M 650.893 403.718 C 652.126 404.834 652.97 406.679 653.149 409.076 C 653.01 407.471 652.503 406.165 651.784 405.176 C 651.891 405.509 651.946 405.861 651.946 406.217 C 651.946 407.145 651.577 408.034 650.923 408.689 C 650.269 409.343 649.379 409.711 648.452 409.711 L 648.452 409.711 C 647.524 409.711 646.635 409.343 645.981 408.689 C 645.326 408.034 644.958 407.145 644.958 406.217 C 644.958 405.29 645.326 404.401 645.981 403.746 C 646.273 403.454 646.613 403.219 646.981 403.047 C 646.108 403.189 645.272 403.608 644.573 404.312 C 643.712 406.251 644.244 408.153 645.526 409.394 C 643.96 408.366 643.437 406.56 643.938 403.994 C 646.087 402.353 648.245 402.14 649.932 403.052 C 650.285 403.217 650.61 403.441 650.893 403.718 L 650.893 403.718 Z  M 650.675 406.217 C 650.675 404.99 649.679 403.994 648.452 403.994 C 647.225 403.994 646.228 404.99 646.228 406.217 C 646.228 407.445 647.225 408.441 648.452 408.441 C 649.679 408.441 650.675 407.445 650.675 406.217 Z " fill-rule="evenodd" fill="rgb(30,30,200)"/><path d=" M 679.4 403.159 C 679.111 404.267 678.806 405.373 678.483 406.472 C 678.159 407.58 677.806 408.676 677.425 409.765 C 677.088 410.737 676.701 411.693 676.269 412.627 C 676.088 413.014 675.891 413.392 675.678 413.761 C 675.506 414.059 675.313 414.348 675.1 414.618 C 674.474 415.4 673.814 416.153 673.121 416.874 C 672.397 417.623 671.647 418.347 670.869 419.04 C 669.335 420.415 667.706 421.679 665.997 422.829 C 665.212 423.356 664.412 423.852 663.589 424.318 C 662.862 424.731 662.116 425.109 661.35 425.449 C 660.725 425.732 660.077 425.967 659.413 426.154 C 659.146 426.227 658.876 426.285 658.603 426.329 C 658.384 426.364 658.161 426.383 657.939 426.386 C 657.752 426.383 657.567 426.367 657.386 426.332 C 657.148 426.288 656.913 426.231 656.684 426.157 C 656.09 425.967 655.512 425.729 654.957 425.449 C 654.261 425.103 653.584 424.722 652.927 424.309 C 652.177 423.836 651.444 423.337 650.732 422.81 C 649.157 421.647 647.664 420.38 646.26 419.017 C 645.546 418.325 644.856 417.607 644.193 416.864 C 643.557 416.149 642.951 415.409 642.379 414.641 C 641.868 413.939 641.413 413.199 641.016 412.424 C 640.534 411.506 640.102 410.562 639.717 409.6 C 639.298 408.565 638.923 407.507 638.596 406.44 C 638.266 405.369 637.983 404.29 637.751 403.194 C 637.693 402.525 638.228 399.721 639.692 397.102 L 639.593 397.226 C 638.825 398.201 638.228 399.3 637.828 400.475 C 637.684 400.912 637.567 401.357 637.474 401.807 C 637.278 400.782 637.103 399.754 636.948 398.722 C 636.7 397.095 636.49 395.463 636.322 393.827 C 636.147 392.172 636.014 390.514 635.919 388.85 C 635.823 387.275 635.776 385.696 635.773 384.118 C 635.769 382.78 635.817 381.44 635.919 380.106 C 635.963 379.538 636.023 378.969 636.103 378.404 C 636.17 377.915 636.255 377.432 636.363 376.952 C 636.449 376.565 636.56 376.18 636.697 375.809 C 636.795 375.536 636.922 375.275 637.078 375.031 C 637.164 374.891 637.275 374.773 637.408 374.678 C 637.469 374.637 637.538 374.615 637.615 374.615 C 637.777 374.615 637.939 374.627 638.101 374.656 C 638.301 374.688 638.501 374.735 638.698 374.796 C 638.917 374.865 639.133 374.948 639.343 375.043 C 639.613 375.167 639.876 375.307 640.13 375.456 C 640.524 375.691 640.905 375.945 641.27 376.225 C 641.772 376.609 642.258 377.019 642.725 377.448 C 643.081 377.772 643.424 378.105 643.761 378.448 C 644.17 378.867 644.571 379.296 644.964 379.731 C 645.247 380.046 645.527 380.367 645.803 380.691 C 646.114 381.056 646.422 381.427 646.724 381.802 C 647.61 382.892 648.461 384.006 649.284 385.147 C 650.497 386.83 651.676 388.542 652.81 390.279 L 652.81 390.279 C 654.633 389.847 656.5 389.635 658.374 389.647 C 659.311 389.647 660.245 389.692 661.176 389.778 C 662.332 389.882 663.485 390.041 664.628 390.251 C 665.838 388.66 667.071 387.087 668.325 385.534 C 669.192 384.461 670.078 383.4 670.98 382.355 C 671.558 381.688 672.149 381.024 672.746 380.373 C 673.216 379.858 673.699 379.35 674.188 378.852 C 674.82 378.21 675.472 377.591 676.142 376.987 C 676.583 376.593 677.041 376.218 677.517 375.866 C 677.777 375.675 678.044 375.491 678.321 375.32 C 678.514 375.196 678.718 375.081 678.924 374.977 C 679.181 374.85 679.451 374.745 679.728 374.669 C 679.867 374.63 680.01 374.611 680.156 374.615 C 680.306 374.618 680.455 374.649 680.595 374.713 C 680.744 374.786 680.877 374.888 680.989 375.008 C 681.151 375.183 681.287 375.377 681.395 375.586 C 681.541 375.869 681.662 376.161 681.757 376.463 C 681.875 376.835 681.973 377.216 682.046 377.6 C 682.132 378.048 682.202 378.502 682.249 378.96 C 682.364 380.043 682.418 381.132 682.411 382.225 C 682.402 383.905 682.323 385.588 682.167 387.262 C 682.002 389.092 681.783 390.918 681.509 392.735 C 681.236 394.561 680.915 396.378 680.55 398.185 C 680.292 399.462 680.009 400.735 679.698 402 C 679.604 401.484 679.473 400.975 679.308 400.475 C 678.911 399.3 678.314 398.201 677.546 397.226 L 677.447 397.102 C 678.68 399.282 679.529 402.364 679.4 403.159 Z  M 653.54 388.501 C 655.138 388.196 656.758 388.05 658.384 388.059 C 659.362 388.059 660.343 388.107 661.318 388.196 C 662.198 388.275 663.078 388.383 663.948 388.523 C 664.981 387.183 666.029 385.852 667.09 384.537 C 667.969 383.447 668.865 382.374 669.78 381.316 C 670.367 380.637 670.968 379.963 671.574 379.299 C 672.06 378.772 672.553 378.251 673.058 377.74 C 673.712 377.073 674.385 376.428 675.081 375.806 C 675.56 375.377 676.056 374.973 676.574 374.592 C 676.866 374.373 677.164 374.17 677.472 373.976 C 677.711 373.824 677.958 373.684 678.213 373.557 C 678.562 373.382 678.924 373.242 679.299 373.138 C 679.588 373.058 679.886 373.02 680.185 373.026 C 680.563 373.033 680.931 373.119 681.274 373.277 C 681.608 373.439 681.906 373.662 682.157 373.935 C 682.415 374.211 682.631 374.522 682.802 374.856 C 682.993 375.218 683.148 375.593 683.272 375.983 C 683.409 376.415 683.52 376.854 683.606 377.298 C 683.701 377.791 683.777 378.289 683.831 378.791 C 683.949 379.935 684.006 381.084 684 382.234 C 683.99 383.959 683.907 385.687 683.749 387.405 C 683.583 389.266 683.358 391.124 683.078 392.973 C 682.802 394.821 682.478 396.667 682.107 398.499 C 681.764 400.199 681.376 401.885 680.938 403.559 C 680.645 404.683 680.334 405.805 680.007 406.919 C 679.677 408.05 679.315 409.174 678.924 410.289 C 678.568 411.312 678.165 412.316 677.711 413.297 C 677.507 413.726 677.288 414.145 677.053 414.555 C 676.844 414.92 676.605 415.273 676.345 415.603 C 675.691 416.426 674.995 417.217 674.265 417.972 C 673.515 418.754 672.734 419.503 671.927 420.224 C 670.339 421.647 668.652 422.956 666.883 424.147 C 666.067 424.696 665.228 425.214 664.374 425.7 C 663.602 426.138 662.811 426.539 662.001 426.898 C 661.299 427.212 660.578 427.476 659.842 427.682 C 659.518 427.771 659.187 427.844 658.857 427.898 C 658.552 427.946 658.244 427.971 657.936 427.974 C 657.653 427.971 657.374 427.946 657.094 427.892 C 656.792 427.838 656.494 427.761 656.202 427.669 C 655.528 427.453 654.874 427.187 654.245 426.869 C 653.505 426.5 652.781 426.094 652.082 425.652 C 651.298 425.16 650.532 424.639 649.786 424.087 C 648.156 422.883 646.61 421.571 645.155 420.158 C 644.412 419.44 643.697 418.693 643.008 417.922 C 642.338 417.169 641.699 416.391 641.099 415.581 C 640.54 414.812 640.041 414.002 639.606 413.157 C 639.101 412.192 638.647 411.204 638.244 410.194 C 637.808 409.114 637.421 408.018 637.078 406.907 C 636.735 405.792 636.44 404.664 636.198 403.524 C 635.881 402.009 635.607 400.488 635.376 398.957 C 635.128 397.308 634.915 395.653 634.743 393.992 C 634.566 392.312 634.429 390.629 634.331 388.942 C 634.238 387.338 634.188 385.731 634.184 384.121 C 634.181 382.742 634.229 381.361 634.334 379.985 C 634.381 379.382 634.445 378.785 634.531 378.185 C 634.601 377.654 634.696 377.13 634.813 376.606 C 634.915 376.152 635.045 375.707 635.204 375.269 C 635.341 374.891 635.515 374.526 635.731 374.186 C 635.931 373.865 636.195 373.589 636.506 373.369 C 636.83 373.147 637.215 373.03 637.605 373.026 C 637.859 373.026 638.11 373.046 638.358 373.087 C 638.634 373.134 638.907 373.198 639.171 373.281 C 639.457 373.369 639.733 373.477 640.003 373.601 C 640.324 373.747 640.635 373.909 640.937 374.09 C 641.388 374.354 641.82 374.646 642.233 374.964 C 642.776 375.38 643.297 375.818 643.802 376.279 C 644.174 376.622 644.539 376.974 644.894 377.337 C 645.32 377.772 645.739 378.216 646.146 378.671 C 646.438 378.994 646.727 379.328 647.013 379.661 C 647.334 380.039 647.648 380.417 647.96 380.802 C 648.862 381.917 649.732 383.054 650.57 384.216 C 651.587 385.626 652.578 387.052 653.54 388.501 L 653.54 388.501 L 653.54 388.501 Z " fill-rule="evenodd" fill="rgb(30,30,200)"/><path d=" M 664.069 401.702 C 667.327 399.266 668.588 398.258 671.65 399.925 C 667.385 399.235 666.131 400.254 664.069 401.702 Z " fill="rgb(30,30,200)"/><path d=" M 651.966 401.369 C 648.966 398.819 647.427 397.93 644.159 399.31 C 648.46 398.891 650.001 399.794 651.966 401.369 Z " fill="rgb(30,30,200)"/></g></svg>