<svg xmlns="http://www.w3.org/2000/svg" data-name="Layer 1" viewBox="0 0 512 640" x="0px" y="0px">
<title>Komodo dragon</title>
<path fill="rgb(52, 211, 216)" d="M440.311,72.594a6,6,0,0,0-2.471-1.647L339.29,36.321c-2.143-.873-17.518-6.668-42.891-4.51-43.834,3.723-83.814,28.181-109.635,48.043-32.743,25.187-89.418,28.081-89.985,28.107a5.988,5.988,0,0,0-.833.1l-13.762,2.581a98.48,98.48,0,0,0-53.845,29.735c-15.619,16.9-18.712,22.14-19.679,25.039-.764,2.291-1.853,7.244-2.508,23.741a34.78,34.78,0,0,0,25.957,35.162l13.985,3.729a163.146,163.146,0,0,0,3.093,18.965c3.87,16.934,9.907,27.723,17.949,32.085L85.9,293.473a48.892,48.892,0,0,0,50.125,5.7c34.139-15.564,59.8-24.489,70.407-24.489,2.384,0,5.425.167,9.069.494,8.151,18.015,24.946,58.75,24.946,76.2,0,3.833-3.881,17.193-39.831,58.367-20.305,23.258-40.9,43.893-41.111,44.1a6,6,0,0,0,3.1,10.132A897.508,897.508,0,0,0,333.387,480.59a849.394,849.394,0,0,0,167.671-16.619,6,6,0,0,0,4.8-6.311L494.706,301.887C492.607,259.608,482.558,119.536,440.311,72.594ZM175.888,454.26c7.971-8.246,20.9-21.891,33.725-36.574,38.391-43.963,42.83-58.9,42.83-66.305,0-19.059-15.3-56.642-23.116-74.6,12,1.629,27.315,4.174,45.264,7.54a71.342,71.342,0,0,0,54.085-11.85l17.272-12.234a6,6,0,0,0-6.935-9.793L321.74,262.681a59.267,59.267,0,0,1-44.937,9.848c-23.956-4.492-55.612-9.847-70.375-9.847-12.8,0-38.165,8.6-75.385,25.57a36.92,36.92,0,0,1-37.848-4.3l-19.17-14.693a5.943,5.943,0,0,0-.966-.6c-7.86-3.93-13.029-23.9-14.833-39.735l135.794-8.9a90.937,90.937,0,0,0,37.711-10.968c20.237-11.15,38.344-16.026,50.987-13.728a6,6,0,1,0,2.146-11.806c-19.676-3.575-42.9,6.2-58.925,15.024a78.854,78.854,0,0,1-32.7,9.5L52.293,217.279,35.2,212.721a22.845,22.845,0,0,1-17.058-23.092c.615-15.5,1.611-19.551,1.888-20.384.249-.637,2.242-4.629,17.12-20.727A86.425,86.425,0,0,1,84.4,122.433l13.363-2.506c5.929-.316,61.751-3.968,96.322-30.561,44.039-33.876,80.008-43.451,102.427-45.518,24.128-2.223,38.144,3.539,38.257,3.586.129.056.259.108.392.154l97.223,34.159c18.353,21.436,32.93,67.8,42.2,134.3,4.759,34.145,6.989,65.744,7.959,83.438l-.031,0,.128,1.787c.426,8.049.571,12.787.575,12.932a5.987,5.987,0,0,0,.512,2.26l9.793,136.764C390.013,473.36,283.239,473.7,175.888,454.26Z"/>
<path fill="rgb(52, 211, 216)" d="M319.121,87.407c-21.869,2.25-55.941,5.6-60.176,5.6-4.295,0-9.035,3.025-19.383,18.081-5.375,7.822-9.913,15.509-10.1,15.832a6,6,0,0,0,5.169,9.045c.19,0,.383-.009.575-.027.386-.037,38.754-3.731,54.845-5.642,18.912-2.247,33.479-31.01,35.078-34.283a6,6,0,0,0-6-8.6ZM305.8,104.554c-6.193,8.333-12.29,13.242-17.169,13.821-10.283,1.222-29.818,3.185-42.513,4.437,6.135-9.4,11.5-16.187,13.81-17.834,6.739-.282,32.916-2.854,48.687-4.441C307.756,101.836,306.813,103.191,305.8,104.554Z"/>
<path fill="rgb(52, 211, 216)" d="M104.193,174.637,71.936,150.669a6,6,0,0,0-8.287,1.1L38.423,183.7a6,6,0,0,0,4.706,9.719,6.066,6.066,0,0,0,.826-.056l57.484-7.968a6,6,0,0,0,2.754-10.759Zm-47.1,4.791,12.365-15.653,15.811,11.748Z"/></svg>