<svg xmlns="http://www.w3.org/2000/svg" xmlns:xlink="http://www.w3.org/1999/xlink" xml:space="preserve" version="1.1" style="shape-rendering:geometricPrecision;text-rendering:geometricPrecision;image-rendering:optimizeQuality;" viewBox="0 0 333 333" x="0px" y="0px" fill-rule="evenodd" clip-rule="evenodd"><defs><style type="text/css">
   
    .fil0 {fill:rgb(30,30,200)}
   
  </style></defs><g><path class="fil0" d="M167 9c51,-3 78,28 77,96 0,49 61,79 57,145 -10,-5 -17,-13 -24,-27 -2,31 -13,55 -35,72 -3,-4 -8,-6 -13,-8 10,-8 18,-19 24,-31 24,-53 -24,-97 -22,-166 1,-46 -49,-53 -64,-24 -15,-29 -65,-22 -64,24 1,69 -46,113 -22,166 6,12 13,23 23,31 -5,2 -9,4 -13,8 -21,-17 -33,-41 -35,-72 -7,14 -13,22 -23,27 -4,-66 57,-96 56,-145 -1,-68 26,-99 78,-96zm-33 62c0,0 -1,0 -2,0 2,1 4,3 4,6 0,4 -3,6 -7,6 -3,0 -5,-2 -6,-4 0,1 -1,3 -1,4 0,7 6,12 12,12 7,0 13,-5 13,-12 0,-7 -6,-12 -13,-12zm0 -11c-12,0 -23,10 -23,23 0,13 11,23 23,23 13,0 24,-10 24,-23 0,-13 -11,-23 -24,-23zm0 6c-9,0 -17,8 -17,17 0,9 8,17 17,17 10,0 17,-8 17,-17 0,-9 -7,-17 -17,-17zm33 37c12,0 20,8 18,15 0,10 -10,22 -18,30 -9,-8 -19,-20 -19,-30 -2,-7 7,-15 19,-15zm32 -32c1,0 2,0 2,0 -2,1 -3,3 -3,6 0,4 3,6 6,6 3,0 5,-2 6,-4 1,1 1,3 1,4 0,7 -5,12 -12,12 -7,0 -12,-5 -12,-12 0,-7 5,-12 12,-12zm0 -11c13,0 23,10 23,23 0,13 -10,23 -23,23 -13,0 -23,-10 -23,-23 0,-13 10,-23 23,-23zm0 6c9,0 17,8 17,17 0,9 -8,17 -17,17 -9,0 -17,-8 -17,-17 0,-9 8,-17 17,-17zm16 226c18,0 33,14 33,32l-66 0c0,-18 15,-32 33,-32zm-97 0c-18,0 -32,14 -33,32l67 0c-1,-18 -15,-32 -34,-32zm-33 33l0 0 0 0zm163 0l0 0 0 0zm-74 -3l-7 2 -8 -2c0,-6 -2,-10 -4,-15 4,1 8,1 12,1 4,0 7,0 11,-1 -2,5 -3,9 -4,15z"/></g></svg>