<svg xmlns="http://www.w3.org/2000/svg" xmlns:xlink="http://www.w3.org/1999/xlink" xml:space="preserve" style="shape-rendering:geometricPrecision;text-rendering:geometricPrecision;image-rendering:optimizeQuality;" viewBox="0 0 100 100" x="0px" y="0px" fill-rule="evenodd" clip-rule="evenodd"><defs><style type="text/css">
   
    .fil0 {fill:purple}
   
  </style></defs><g><path class="fil0" d="M10.7765 82.027c-4.30161,-1.36773 -5.83233,-12.1891 1.70316,-18.3616l16.0797 -13.1753c-0.0885834,-4.865 1.28505,-9.27999 3.72168,-13.3678l-5.68351 -7.05714 -0.107481 -3.1831 -3.4016 -1.17284 -3.04254 -3.77838 -0.101576 -1.78112 -6.24099 -6.09454c-0.989772,-1.5945 0.302365,-2.98349 2.03387,-1.88742l22.0514 15.8387c0.929535,-1.59804 2.06576,-2.96931 3.78901,-3.77247 2.67758,-1.24844 2.40829,2.91853 4.10791,4.39964 -0.216143,-2.06222 -0.309451,-6.9662 3.03782,-10.4174 2.91498,-3.00593 15.7265,-0.405121 21.1974,2.39884 1.08308,0.556304 1.59686,1.75277 1.65238,3.08506 5.59729,-6.35084 13.0808,6.11462 11.9103,9.50559 -2.40829,6.97919 -1.46458,12.3981 4.7339,18.3167 4.01578,3.83507 -3.97798,11.569 2.24057,18.4289 4.85437,5.35516 1.86852,8.48865 -5.81579,12.5564 -5.51815,2.92089 -15.2611,-3.4264 -15.0178,-6.14296 0.103938,-1.1504 -0.386224,-2.40947 -0.347247,-3.74885 -3.05317,6.06855 -8.96936,9.34259 -20.5714,10.03 -9.87646,0.585831 -20.2053,5.23941 -29.7924,5.57957 -4.06775,-0.303546 -7.16699,-1.86734 -8.13668,-6.19847zm7.53313 -8.31975c1.32166,0.00708667 2.81223,-0.513784 3.652,-1.75986 -0.518508,-1.36064 -1.363,-2.40002 -2.14136,-2.13663 -0.777171,0.262207 -2.01498,2.97404 -1.51064,3.89649zm17.2749 -32.4818l-2.23112 -2.77089c-2.06576,3.6331 -3.27877,7.60518 -3.19845,12.006l0.0141733 0.773628 -16.6785 13.6655c-5.65516,4.63232 -5.50044,11.9729 -3.45948,14.5997 1.39844,1.8012 6.09926,1.66537 8.34928,1.85907 2.1508,0.00236222 4.11499,-0.32953 5.91028,-1.13859 0.898826,-0.405121 1.51419,0.961425 0.615359,1.36655 -3.83271,1.72679 -8.19928,1.4256 -12.4277,0.649611 0.916543,3.10042 3.27877,4.13743 6.46659,4.39137 9.49378,-0.362601 19.5179,-4.97248 29.666,-5.57367 6.04375,-0.357877 13.4304,-1.48584 17.5159,-6.47367 2.48978,-3.04136 3.50908,-7.11029 4.05476,-10.9336l-2.69412 -15.9769c0,-0.0283467 4.71972,-6.17603 5.19217,-12.5127 -4.64059,2.55474 -6.63549,4.27799 -8.18865,9.21267 -0.487799,-0.884653 -0.843314,-1.6382 -1.06891,-2.8512 2.74018,-2.426 3.69216,-4.99965 4.22366,-9.69456 0.333073,1.30631 0.460634,3.21735 0.124017,4.99374 1.79883,-1.19529 3.37562,-1.48938 4.91342,-1.70198 0.390948,-5.44374 -2.10474,-6.68155 -6.54454,-3.91184l-0.428744 0.268112 -20.4285 -1.14922 -0.379137 -0.275199c-1.64529,-1.19292 -1.9134,-3.34727 -2.57246,-4.402 -1.376,0.566934 -2.426,1.88269 -3.24569,3.29176l4.49767 3.22916c1.14568,5.18862 -2.49333,9.31661 -7.99731,9.05913zm9.08393 8.26424c1.95356,0 3.53979,1.58505 3.53979,3.53979 0,1.95474 -1.58623,3.53979 -3.53979,3.53979 -1.95474,0 -3.53979,-1.58505 -3.53979,-3.53979 0,-1.95474 1.58505,-3.53979 3.53979,-3.53979z"/></g></svg>