<svg xmlns="http://www.w3.org/2000/svg" xmlns:xlink="http://www.w3.org/1999/xlink" style="isolation:isolate;" viewBox="626.798 375.5 64.404 52.5" x="0px" y="0px"><defs><clipPath id="a"><rect x="626.798" y="375.5" width="64.404" height="50"/></clipPath></defs><g clip-path="url(#a)"><path d=" M 660.341 418.734 C 660.661 418.848 660.982 418.958 661.303 419.064 C 661.802 419.228 662.303 419.372 662.808 419.5 C 663.241 419.608 663.68 419.693 664.123 419.759 C 664.242 419.776 664.361 419.791 664.48 419.803 L 664.48 419.803 L 664.48 420.129 C 664.48 422.34 662.818 424.135 660.77 424.135 L 659.01 424.135 C 656.962 424.135 655.3 422.34 655.3 420.129 L 655.3 419.865 C 655.324 419.861 655.348 419.858 655.372 419.854 C 655.841 419.785 656.303 419.69 656.759 419.575 C 657.294 419.438 657.825 419.28 658.346 419.107 C 658.703 418.988 659.057 418.865 659.41 418.736 L 659.427 418.896 C 659.015 419.749 658.467 420.364 657.776 420.734 C 658.605 420.501 659.182 420.121 659.502 419.589 C 659.628 420.374 659.754 421.52 659.873 423.022 C 659.898 421.443 660.023 420.301 660.243 419.589 C 660.731 420.067 661.245 420.387 661.779 420.544 C 661.291 420.145 660.808 419.598 660.324 418.896 L 660.341 418.734 Z  M 644.002 386.864 C 644.972 385.172 646.12 383.328 648.522 380.946 C 647.39 383.779 646.734 385.992 645.395 387.726 L 644.002 386.864 L 644.002 386.864 L 644.002 386.864 Z  M 644.002 386.864 C 643.671 387.385 643.349 387.916 643.048 388.454 C 642.493 389.434 642.018 390.457 641.621 391.513 C 641.29 392.392 641.041 393.297 640.874 394.218 C 640.73 395.011 640.661 395.815 640.657 396.618 C 640.664 397.448 640.733 398.274 640.871 399.09 C 640.992 399.811 641.139 400.526 641.307 401.238 C 641.438 401.802 641.556 402.366 641.657 402.936 C 641.749 403.454 641.798 403.979 641.805 404.507 C 641.805 404.998 641.749 405.484 641.634 405.962 C 641.5 406.503 641.297 407.028 641.031 407.52 C 640.684 408.152 640.277 408.746 639.808 409.297 C 639.215 409.995 638.572 410.654 637.887 411.264 C 637.759 411.32 637.628 411.366 637.497 411.408 C 637.49 411.392 637.487 411.372 637.484 411.352 C 637.441 411.172 637.402 410.989 637.369 410.808 C 637.251 410.172 637.1 409.543 636.92 408.923 C 636.638 407.989 636.271 407.087 635.828 406.218 C 635.205 405.008 634.477 403.857 633.651 402.775 C 633.133 402.09 632.589 401.425 632.018 400.782 C 631.353 400.034 630.664 399.31 629.946 398.608 C 629.448 398.116 629.057 397.52 628.808 396.864 C 628.559 396.198 628.434 395.49 628.438 394.782 C 628.441 393.608 628.739 392.454 629.31 391.431 C 629.585 390.926 629.93 390.464 630.33 390.051 C 630.72 389.651 631.169 389.313 631.664 389.051 C 631.998 388.871 632.32 388.674 632.631 388.454 C 632.982 388.211 633.323 387.956 633.657 387.687 C 634.431 387.07 635.189 386.434 635.936 385.785 C 636.864 384.985 637.805 384.202 638.762 383.434 C 639.739 382.644 640.759 381.913 641.818 381.234 C 642.33 380.913 642.854 380.611 643.392 380.333 C 643.907 380.067 644.434 379.834 644.975 379.634 C 645.487 379.441 646.012 379.293 646.546 379.182 C 647.054 379.08 647.569 379.028 648.087 379.025 C 648.349 379.025 648.612 379.041 648.874 379.07 C 649.139 378.844 649.434 378.657 649.749 378.507 C 650.008 378.382 650.277 378.277 650.553 378.189 C 651.192 377.985 651.851 377.841 652.516 377.749 C 653.248 377.648 653.982 377.579 654.72 377.543 C 655.444 377.507 656.169 377.49 656.897 377.493 C 657.434 377.493 657.975 377.5 658.513 377.51 C 658.871 377.516 659.228 377.52 659.585 377.52 C 659.585 377.52 659.585 377.52 659.585 377.52 L 659.589 377.52 C 659.589 377.52 659.592 377.52 659.592 377.52 C 659.943 377.52 660.294 377.5 660.641 377.464 C 660.992 377.431 661.339 377.389 661.687 377.346 C 662.11 377.29 662.53 377.244 662.953 377.205 C 663.408 377.162 663.864 377.139 664.32 377.139 C 665.339 377.143 666.356 377.261 667.346 377.497 C 667.975 377.648 668.592 377.831 669.198 378.054 C 669.92 378.316 670.628 378.618 671.316 378.956 C 672.228 379.444 673.185 379.841 674.179 380.136 C 674.572 380.251 674.972 380.352 675.375 380.438 C 675.726 380.513 676.077 380.579 676.431 380.641 C 676.907 380.72 677.382 380.821 677.851 380.946 C 678.274 381.061 678.68 381.231 679.061 381.448 C 679.533 381.73 679.962 382.074 680.343 382.47 C 680.598 382.736 680.844 383.015 681.074 383.303 C 681.356 383.661 681.628 384.028 681.88 384.408 C 682.064 384.667 682.271 384.91 682.497 385.13 C 682.746 385.372 683.005 385.605 683.277 385.825 C 683.89 386.32 684.52 386.802 685.162 387.267 C 685.713 387.671 686.261 388.08 686.798 388.5 C 687.3 388.887 687.782 389.303 688.241 389.739 C 688.441 389.93 688.628 390.13 688.808 390.339 C 688.962 390.516 689.1 390.707 689.228 390.903 C 689.326 391.057 689.412 391.225 689.474 391.398 C 689.52 391.523 689.546 391.654 689.553 391.785 L 689.562 392.28 C 689.566 393.208 689.461 394.13 689.248 395.028 C 689.057 395.811 688.782 396.572 688.428 397.293 C 688.084 397.982 687.69 398.644 687.251 399.277 C 686.805 399.91 686.346 400.533 685.867 401.143 C 685.408 401.73 684.962 402.33 684.53 402.943 C 684.084 403.572 683.684 404.234 683.333 404.92 C 682.959 405.651 682.671 406.421 682.467 407.218 C 682.248 408.103 682.139 409.015 682.143 409.926 C 682.143 410.179 682.149 410.428 682.166 410.677 C 682.153 410.671 682.139 410.664 682.126 410.657 C 681.805 410.484 681.503 410.274 681.231 410.034 C 680.992 409.821 680.782 409.579 680.605 409.313 C 680.428 409.044 680.28 408.759 680.166 408.457 C 680.041 408.123 679.943 407.779 679.874 407.431 C 679.795 407.028 679.736 406.625 679.7 406.218 C 679.657 405.756 679.625 405.293 679.608 404.831 C 679.589 404.313 679.572 403.798 679.562 403.28 C 679.539 402.044 679.484 400.805 679.395 399.569 C 679.284 398.113 679.071 396.671 678.759 395.244 C 678.389 393.579 677.864 391.946 677.198 390.372 C 675.356 386.057 675.123 384.369 671.628 381.234 C 672.621 383.599 673.358 385.628 674.225 389.054 C 674.612 390.067 674.953 391.097 675.248 392.139 C 675.52 393.097 675.733 394.071 675.89 395.054 C 676.031 395.962 676.107 396.877 676.11 397.798 C 676.113 398.693 676.028 399.592 675.857 400.471 C 675.69 401.333 675.428 402.169 675.077 402.972 C 674.713 403.805 674.257 404.592 673.72 405.323 C 673.103 406.159 672.402 406.93 671.628 407.621 C 670.943 408.723 670.353 409.88 669.867 411.08 C 669.48 412.044 669.13 413.025 668.812 414.015 C 668.612 414.651 668.389 415.284 668.143 415.907 C 668.044 416.159 667.93 416.405 667.808 416.644 C 667.703 416.851 667.582 417.048 667.444 417.231 C 667.228 417.533 666.943 417.779 666.612 417.949 C 666.434 418.034 666.248 418.097 666.054 418.136 C 665.802 418.185 665.546 418.212 665.287 418.208 C 664.979 418.205 664.667 418.182 664.359 418.136 C 663.972 418.08 663.589 418.005 663.208 417.91 C 662.739 417.792 662.274 417.657 661.815 417.507 C 661.159 417.293 660.513 417.057 659.871 416.805 C 659.198 417.074 658.516 417.323 657.828 417.552 C 657.343 417.713 656.851 417.857 656.353 417.985 C 655.949 418.09 655.539 418.172 655.13 418.234 C 654.802 418.284 654.471 418.31 654.143 418.313 C 653.871 418.313 653.602 418.287 653.336 418.234 C 653.126 418.192 652.92 418.123 652.726 418.028 C 652.549 417.939 652.382 417.828 652.231 417.697 C 652.064 417.549 651.913 417.389 651.782 417.208 C 651.625 416.998 651.48 416.775 651.356 416.543 C 651.205 416.264 651.067 415.982 650.943 415.693 C 650.638 414.972 650.353 414.241 650.087 413.5 C 649.762 412.612 649.421 411.726 649.064 410.848 C 648.631 409.795 648.149 408.759 647.621 407.746 C 646.933 406.641 646.3 405.497 645.73 404.323 C 645.218 403.274 644.772 402.195 644.398 401.09 C 644.057 400.087 643.792 399.061 643.608 398.021 C 643.434 397.061 643.349 396.09 643.346 395.116 C 643.343 393.49 643.615 391.877 644.156 390.346 C 644.431 389.575 644.769 388.831 645.172 388.116 C 645.244 387.985 645.32 387.854 645.395 387.726 L 644.002 386.864 L 644.002 386.864 L 644.002 386.864 Z  M 665.592 419.841 C 665.854 419.827 666.115 419.794 666.375 419.743 C 666.71 419.677 667.034 419.566 667.339 419.418 C 667.91 419.13 668.402 418.71 668.772 418.192 C 668.956 417.939 669.12 417.674 669.264 417.395 C 669.415 417.107 669.549 416.812 669.667 416.51 C 669.926 415.851 670.162 415.185 670.375 414.51 C 670.68 413.559 671.018 412.618 671.389 411.69 C 671.812 410.648 672.316 409.641 672.903 408.68 C 673.69 407.956 674.405 407.156 675.041 406.297 C 675.651 405.467 676.166 404.572 676.579 403.631 C 676.979 402.716 677.277 401.762 677.467 400.785 C 677.579 400.208 677.657 399.628 677.703 399.041 C 677.723 399.257 677.743 399.474 677.759 399.69 C 677.848 400.897 677.903 402.107 677.923 403.313 C 677.936 403.841 677.949 404.366 677.972 404.893 C 677.989 405.385 678.021 405.877 678.067 406.369 C 678.11 406.831 678.175 407.29 678.267 407.749 C 678.353 408.189 678.477 408.618 678.635 409.038 C 678.792 409.454 678.995 409.851 679.241 410.221 C 679.497 410.605 679.798 410.952 680.139 411.257 C 680.51 411.585 680.916 411.867 681.353 412.1 C 682.241 412.579 683.205 412.9 684.202 413.057 C 683.926 412.034 683.785 410.982 683.782 409.923 C 683.779 409.146 683.871 408.372 684.057 407.618 C 684.231 406.943 684.477 406.287 684.792 405.664 C 685.107 405.048 685.467 404.454 685.867 403.887 C 686.284 403.3 686.713 402.72 687.159 402.152 C 687.654 401.52 688.133 400.874 688.592 400.218 C 689.08 399.52 689.516 398.785 689.897 398.021 C 690.307 397.189 690.625 396.313 690.844 395.411 C 691.087 394.382 691.205 393.326 691.202 392.271 C 691.202 392.264 691.202 392.261 691.202 392.257 L 691.192 391.746 C 691.192 391.736 691.192 391.73 691.192 391.723 C 691.179 391.418 691.116 391.116 691.012 390.831 C 690.907 390.546 690.772 390.274 690.608 390.018 C 690.441 389.756 690.254 389.507 690.051 389.27 C 689.838 389.021 689.612 388.782 689.375 388.556 C 688.877 388.08 688.349 387.628 687.802 387.205 C 687.251 386.775 686.694 386.352 686.126 385.939 C 685.51 385.493 684.903 385.031 684.31 384.549 C 684.077 384.362 683.854 384.162 683.641 383.952 C 683.49 383.808 683.353 383.648 683.231 383.477 C 682.956 383.07 682.664 382.67 682.356 382.284 C 682.094 381.952 681.815 381.634 681.52 381.333 C 681.038 380.828 680.49 380.392 679.89 380.034 C 679.382 379.743 678.841 379.516 678.274 379.362 C 677.759 379.225 677.234 379.113 676.707 379.025 C 676.375 378.966 676.044 378.903 675.713 378.834 C 675.353 378.759 674.995 378.667 674.644 378.566 C 673.749 378.297 672.887 377.939 672.067 377.497 C 671.316 377.13 670.546 376.802 669.762 376.513 C 669.094 376.27 668.415 376.067 667.726 375.903 C 666.612 375.638 665.467 375.503 664.32 375.5 C 663.812 375.5 663.307 375.526 662.802 375.572 C 662.359 375.611 661.916 375.661 661.477 375.72 C 661.146 375.762 660.812 375.802 660.48 375.834 C 660.182 375.864 659.884 375.88 659.585 375.88 C 659.585 375.88 659.585 375.88 659.582 375.88 L 659.589 375.88 L 659.589 375.88 C 659.589 375.88 659.589 375.88 659.585 375.88 L 659.585 375.88 C 659.238 375.88 658.89 375.877 658.543 375.87 C 657.995 375.861 657.448 375.854 656.9 375.854 C 656.146 375.851 655.395 375.87 654.644 375.907 C 653.857 375.943 653.071 376.015 652.29 376.126 C 651.533 376.228 650.785 376.395 650.057 376.625 C 649.71 376.736 649.372 376.87 649.044 377.025 C 648.818 377.133 648.602 377.254 648.392 377.392 C 648.287 377.389 648.185 377.385 648.084 377.385 C 647.457 377.389 646.831 377.451 646.218 377.575 C 645.602 377.703 644.995 377.877 644.402 378.097 C 643.802 378.323 643.212 378.582 642.641 378.877 C 642.057 379.175 641.49 379.503 640.936 379.854 C 639.828 380.562 638.759 381.33 637.733 382.156 C 636.762 382.936 635.805 383.733 634.864 384.546 C 634.133 385.182 633.389 385.802 632.634 386.408 C 632.326 386.654 632.012 386.887 631.69 387.113 C 631.434 387.293 631.169 387.457 630.893 387.605 C 630.251 387.946 629.664 388.385 629.156 388.907 C 628.651 389.425 628.221 390.005 627.874 390.638 C 627.172 391.903 626.802 393.326 626.798 394.775 C 626.792 395.684 626.956 396.589 627.274 397.441 C 627.608 398.32 628.13 399.12 628.798 399.779 C 629.487 400.451 630.153 401.149 630.792 401.871 C 631.333 402.484 631.851 403.116 632.346 403.766 C 633.113 404.772 633.789 405.844 634.369 406.966 C 634.766 407.743 635.093 408.556 635.349 409.389 C 635.513 409.956 635.648 410.526 635.756 411.107 C 635.795 411.31 635.838 411.51 635.884 411.71 C 635.923 411.9 635.985 412.087 636.064 412.267 C 636.166 412.503 636.326 412.71 636.536 412.861 C 636.769 413.018 637.048 413.1 637.33 413.09 C 637.553 413.084 637.769 413.044 637.982 412.975 C 638.254 412.887 638.523 412.782 638.782 412.661 C 639.598 411.952 640.359 411.182 641.057 410.356 C 641.598 409.723 642.071 409.034 642.471 408.3 C 642.805 407.687 643.057 407.031 643.228 406.352 C 643.372 405.743 643.444 405.123 643.444 404.497 C 643.438 403.959 643.395 403.425 643.313 402.893 C 643.598 403.621 643.913 404.339 644.254 405.041 C 644.841 406.248 645.49 407.421 646.198 408.559 C 646.69 409.51 647.139 410.48 647.546 411.471 C 647.897 412.326 648.228 413.189 648.546 414.057 C 648.821 414.825 649.116 415.585 649.434 416.339 C 649.579 416.674 649.739 417.002 649.913 417.32 C 650.077 417.625 650.261 417.913 650.467 418.189 C 650.671 418.461 650.9 418.71 651.153 418.93 C 651.408 419.156 651.694 419.346 652.002 419.497 C 652.32 419.654 652.661 419.769 653.008 419.841 C 653.385 419.916 653.769 419.956 654.153 419.952 C 654.153 419.952 654.154 419.952 654.154 419.952 L 654.154 420.262 C 654.154 423.153 656.225 425.5 658.776 425.5 L 660.969 425.5 C 663.521 425.5 665.592 423.153 665.592 420.262 L 665.592 419.841 L 665.592 419.841 Z " fill-rule="evenodd" fill="rgb(0, 160, 13)"/><path d=" M 668.389 394.215 C 668.389 393.484 668.983 392.89 669.714 392.89 C 670.444 392.89 671.038 393.484 671.038 394.215 C 671.038 394.945 670.444 395.539 669.714 395.539 C 668.983 395.539 668.389 394.945 668.389 394.215 Z " fill="rgb(0, 160, 13)"/><path d=" M 667.117 395.762 C 666.713 395.549 667.228 392.57 669.707 392.393 C 670.728 392.32 671.944 392.999 672.454 394.619 C 672.252 394.827 671.969 394.856 671.603 394.705 C 671.59 392.645 667.964 391.163 667.117 395.762 Z " fill="rgb(0, 160, 13)"/><path d=" M 671.603 394.705 C 671.607 394.707 671.611 394.708 671.614 394.71 C 671.394 395.557 670.623 396.183 669.707 396.183 C 668.619 396.183 667.736 395.3 667.736 394.212 C 667.736 394.098 667.746 393.985 667.764 393.876 C 669.113 391.556 671.592 392.991 671.603 394.705 Z  M 671.298 394.71 C 671.192 395.049 670.981 395.345 670.695 395.555 C 670.408 395.765 670.064 395.878 669.707 395.878 C 669.265 395.878 668.841 395.704 668.53 395.39 C 668.216 395.079 668.039 394.652 668.039 394.213 C 668.039 394.134 668.045 394.058 668.058 393.979 C 668.155 393.817 668.268 393.668 668.393 393.527 C 668.509 393.402 668.637 393.293 668.78 393.204 C 669.012 393.055 669.283 392.973 669.561 392.973 C 669.783 392.973 670 393.021 670.201 393.113 C 670.408 393.207 670.6 393.338 670.762 393.5 C 670.923 393.662 671.058 393.851 671.152 394.061 C 671.247 394.262 671.295 394.485 671.298 394.707 C 671.298 394.707 671.298 394.71 671.298 394.71 Z " fill-rule="evenodd" fill="rgb(0, 160, 13)"/><path d=" M 651.708 394.215 C 651.708 393.484 651.115 392.89 650.384 392.89 C 649.653 392.89 649.06 393.484 649.06 394.215 C 649.06 394.945 649.653 395.539 650.384 395.539 C 651.115 395.539 651.708 394.945 651.708 394.215 Z " fill="rgb(0, 160, 13)"/><path d=" M 652.981 395.762 C 653.385 395.549 652.87 392.57 650.391 392.393 C 649.37 392.32 648.154 392.999 647.644 394.619 C 647.845 394.827 648.129 394.856 648.495 394.705 C 648.508 392.645 652.134 391.163 652.981 395.762 Z " fill="rgb(0, 160, 13)"/><path d=" M 648.495 394.705 C 648.491 394.707 648.487 394.708 648.483 394.71 C 648.704 395.557 649.475 396.183 650.391 396.183 C 651.479 396.183 652.362 395.3 652.362 394.212 C 652.362 394.098 652.352 393.985 652.333 393.876 C 650.985 391.556 648.506 392.991 648.495 394.705 Z  M 648.799 394.71 C 648.906 395.049 649.116 395.345 649.403 395.555 C 649.69 395.765 650.034 395.878 650.391 395.878 C 650.833 395.878 651.257 395.704 651.568 395.39 C 651.882 395.079 652.059 394.652 652.059 394.213 C 652.059 394.134 652.052 394.058 652.04 393.979 C 651.943 393.817 651.83 393.668 651.705 393.527 C 651.589 393.402 651.461 393.293 651.318 393.204 C 651.086 393.055 650.815 392.973 650.537 392.973 C 650.315 392.973 650.098 393.021 649.897 393.113 C 649.69 393.207 649.498 393.338 649.336 393.5 C 649.174 393.662 649.04 393.851 648.946 394.061 C 648.851 394.262 648.802 394.485 648.799 394.707 C 648.799 394.707 648.799 394.71 648.799 394.71 Z " fill-rule="evenodd" fill="rgb(0, 160, 13)"/><path d=" M 665.277 409.474 C 665.001 408.198 663.21 406.788 659.873 406.82 C 656.536 406.852 654.635 408.274 654.444 409.529 C 654.263 411.338 654.421 412.639 654.917 413.432 Q 655.837 414.906 659.873 415.778 Q 663.928 414.604 664.849 413.131 C 665.354 412.322 665.484 411.168 665.277 409.474 Z " fill="rgb(0, 160, 13)"/><path d=" M 655.106 407.75 C 655.045 407.802 654.963 407.823 654.884 407.814 C 654.804 407.808 654.728 407.765 654.679 407.704 C 654.628 407.64 654.603 407.561 654.612 407.479 C 654.622 407.399 654.661 407.326 654.725 407.274 C 655.149 406.936 655.591 406.622 656.054 406.338 C 656.478 406.082 656.92 405.857 657.378 405.668 C 658.216 405.314 659.112 405.131 660.018 405.122 C 660.908 405.128 661.786 405.314 662.603 405.668 C 663.042 405.857 663.46 406.085 663.859 406.345 C 664.292 406.628 664.701 406.942 665.088 407.284 C 665.149 407.338 665.186 407.412 665.192 407.494 C 665.195 407.573 665.167 407.652 665.115 407.713 C 665.061 407.774 664.987 407.811 664.905 407.817 C 664.826 407.82 664.747 407.793 664.686 407.741 C 664.32 407.418 663.933 407.122 663.524 406.854 C 663.155 406.613 662.765 406.402 662.362 406.229 C 661.622 405.905 660.826 405.738 660.018 405.732 C 659.192 405.741 658.375 405.909 657.612 406.229 C 657.183 406.405 656.768 406.619 656.372 406.86 C 655.933 407.128 655.509 407.427 655.106 407.75 Z " fill="rgb(0, 160, 13)"/><path d=" M 658.287 380.274 C 658.274 380.143 658.313 380.015 658.395 379.913 C 658.477 379.811 658.598 379.749 658.726 379.733 C 658.857 379.72 658.985 379.759 659.087 379.844 C 659.189 379.926 659.251 380.044 659.264 380.175 C 659.454 382.044 659.553 383.926 659.559 385.805 C 659.562 386.831 659.526 387.854 659.451 388.877 C 659.385 389.772 659.287 390.664 659.149 391.552 C 658.926 393.028 658.575 394.48 658.1 395.893 C 657.713 397.021 657.241 398.12 656.687 399.175 C 656.225 400.041 655.736 400.893 655.218 401.726 C 654.989 402.097 654.762 402.471 654.543 402.848 C 654.339 403.198 654.146 403.552 653.966 403.913 C 653.798 404.254 653.651 404.605 653.523 404.962 C 653.402 405.316 653.307 405.677 653.238 406.044 C 653.172 406.471 653.143 406.9 653.149 407.33 C 653.149 408.048 653.202 408.762 653.303 409.474 C 653.405 410.244 653.566 411.005 653.785 411.752 C 653.89 412.107 654.012 412.454 654.153 412.795 C 654.28 413.107 654.431 413.405 654.605 413.693 C 654.753 413.939 654.926 414.172 655.123 414.382 C 655.287 414.559 655.477 414.707 655.687 414.821 C 655.802 414.884 655.887 414.989 655.926 415.113 C 655.962 415.238 655.946 415.372 655.884 415.487 C 655.821 415.602 655.716 415.687 655.592 415.723 C 655.467 415.759 655.333 415.746 655.218 415.684 C 654.916 415.52 654.641 415.307 654.405 415.054 C 654.159 414.795 653.943 414.507 653.759 414.195 C 653.562 413.867 653.392 413.526 653.244 413.172 C 653.09 412.798 652.956 412.418 652.841 412.031 C 652.608 411.238 652.438 410.428 652.326 409.605 C 652.221 408.854 652.169 408.097 652.166 407.339 C 652.156 406.851 652.192 406.362 652.271 405.88 C 652.346 405.457 652.454 405.041 652.595 404.638 C 652.736 404.241 652.9 403.854 653.087 403.477 C 653.274 403.097 653.477 402.72 653.694 402.352 C 653.92 401.969 654.146 401.585 654.382 401.208 C 654.887 400.395 655.366 399.562 655.818 398.716 C 656.346 397.707 656.798 396.657 657.166 395.579 C 657.625 394.218 657.962 392.821 658.175 391.402 C 658.31 390.543 658.408 389.674 658.471 388.805 C 658.543 387.808 658.579 386.808 658.575 385.808 C 658.569 383.959 658.474 382.113 658.287 380.274 Z " fill="rgb(0, 160, 13)"/><path d=" M 664.467 415.684 C 664.353 415.746 664.218 415.759 664.094 415.723 C 663.969 415.687 663.861 415.602 663.798 415.487 C 663.736 415.372 663.723 415.238 663.759 415.113 C 663.795 414.989 663.88 414.884 663.995 414.821 C 664.205 414.707 664.398 414.559 664.562 414.382 C 664.759 414.172 664.933 413.939 665.08 413.693 C 665.254 413.405 665.405 413.107 665.53 412.795 C 665.674 412.454 665.795 412.107 665.9 411.752 C 666.12 411.005 666.28 410.244 666.382 409.474 C 666.484 408.762 666.533 408.048 666.536 407.33 C 666.543 406.9 666.513 406.471 666.444 406.044 C 666.379 405.677 666.284 405.316 666.162 404.962 C 666.034 404.605 665.887 404.254 665.716 403.913 C 665.539 403.552 665.346 403.198 665.143 402.848 C 664.923 402.471 664.697 402.097 664.467 401.726 C 663.949 400.893 663.457 400.041 662.998 399.175 C 662.444 398.12 661.972 397.021 661.585 395.893 C 661.11 394.48 660.759 393.028 660.536 391.552 C 660.398 390.664 660.297 389.772 660.234 388.877 C 660.159 387.854 660.123 386.831 660.126 385.805 C 660.133 383.926 660.231 382.044 660.418 380.175 C 660.431 380.044 660.497 379.926 660.598 379.844 C 660.7 379.759 660.828 379.72 660.959 379.733 C 661.087 379.749 661.208 379.811 661.29 379.913 C 661.372 380.015 661.412 380.143 661.398 380.274 C 661.212 382.113 661.116 383.959 661.11 385.808 C 661.107 386.808 661.143 387.808 661.215 388.805 C 661.277 389.674 661.375 390.543 661.507 391.402 C 661.723 392.821 662.061 394.218 662.516 395.579 C 662.887 396.657 663.339 397.707 663.867 398.716 C 664.316 399.562 664.798 400.395 665.303 401.208 C 665.536 401.585 665.766 401.969 665.992 402.352 C 666.208 402.72 666.408 403.097 666.598 403.477 C 666.785 403.854 666.949 404.241 667.09 404.638 C 667.231 405.041 667.339 405.457 667.415 405.88 C 667.494 406.362 667.526 406.851 667.52 407.339 C 667.516 408.097 667.464 408.854 667.356 409.605 C 667.248 410.428 667.077 411.238 666.844 412.031 C 666.73 412.418 666.595 412.798 666.441 413.172 C 666.294 413.526 666.123 413.867 665.926 414.195 C 665.743 414.507 665.523 414.795 665.277 415.054 C 665.044 415.307 664.769 415.52 664.467 415.684 Z " fill="rgb(0, 160, 13)"/><path d=" M 666.716 392.268 C 667.478 390.846 668.802 390.239 670.679 390.439 C 669.053 390.642 667.735 391.255 666.716 392.268 Z " fill="rgb(0, 160, 13)"/><path d=" M 653.301 392.268 C 652.539 390.846 651.215 390.239 649.338 390.439 C 650.964 390.642 652.282 391.255 653.301 392.268 Z " fill="rgb(0, 160, 13)"/></g></svg>