<svg xmlns="http://www.w3.org/2000/svg" xmlns:xlink="http://www.w3.org/1999/xlink" style="isolation:isolate;" viewBox="634 370.562 50 64.845" x="0px" y="0px"><defs><clipPath id="a"><rect x="634" y="370.562" width="50" height="59.876"/></clipPath></defs><g clip-path="url(#a)"><path d=" M 665.757 415.606 L 665.825 415.764 L 665.51 415.897 L 665.442 415.74 L 665.346 415.51 C 665.346 415.507 665.342 415.5 665.342 415.493 C 665.226 415.113 665.168 414.716 665.171 414.319 C 665.175 414.048 665.192 413.774 665.229 413.507 C 665.267 413.24 665.308 412.973 665.356 412.706 C 665.408 412.425 665.452 412.141 665.493 411.856 C 665.531 411.565 665.551 411.274 665.551 410.98 C 665.555 410.617 665.514 410.25 665.435 409.894 C 665.36 409.593 665.243 409.298 665.086 409.028 C 664.918 408.74 664.733 408.463 664.534 408.192 C 664.339 407.925 664.154 407.651 663.979 407.374 C 663.774 407.045 663.596 406.706 663.442 406.35 C 663.26 405.925 663.116 405.48 663.01 405.028 C 662.884 404.463 662.805 403.884 662.771 403.305 L 662.76 403.134 L 663.103 403.113 L 663.113 403.285 C 663.144 403.846 663.223 404.404 663.346 404.952 C 663.445 405.384 663.582 405.808 663.757 406.216 C 663.904 406.552 664.075 406.877 664.267 407.189 C 664.442 407.463 664.623 407.73 664.812 407.99 C 665.017 408.271 665.205 408.558 665.38 408.856 C 665.558 409.154 665.685 409.48 665.767 409.819 C 665.853 410.199 665.897 410.593 665.894 410.983 C 665.894 411.291 665.873 411.596 665.832 411.901 C 665.791 412.192 665.747 412.48 665.695 412.767 C 665.647 413.028 665.606 413.291 665.568 413.555 C 665.534 413.808 665.517 414.065 665.514 414.322 C 665.514 414.682 665.562 415.041 665.668 415.387 L 665.757 415.606 Z " fill="#e08f15"/><path d=" M 654.339 403.285 L 654.346 403.113 L 654.688 403.134 L 654.682 403.305 C 654.647 403.884 654.569 404.463 654.438 405.028 C 654.336 405.48 654.192 405.925 654.01 406.35 C 653.856 406.706 653.678 407.045 653.473 407.374 C 653.295 407.651 653.11 407.925 652.918 408.192 C 652.719 408.463 652.534 408.74 652.366 409.028 C 652.209 409.298 652.089 409.593 652.017 409.894 C 651.938 410.25 651.897 410.617 651.897 410.98 C 651.901 411.274 651.921 411.565 651.959 411.856 C 651.997 412.141 652.041 412.425 652.093 412.706 C 652.14 412.973 652.185 413.24 652.223 413.507 C 652.257 413.774 652.277 414.048 652.281 414.319 C 652.281 414.716 652.226 415.113 652.11 415.493 C 652.11 415.5 652.106 415.507 652.103 415.51 L 652.007 415.74 L 651.942 415.897 L 651.627 415.764 L 651.692 415.606 L 651.784 415.387 C 651.887 415.041 651.938 414.682 651.938 414.322 C 651.935 414.065 651.918 413.808 651.88 413.555 C 651.846 413.291 651.805 413.028 651.757 412.767 C 651.706 412.48 651.658 412.192 651.62 411.901 C 651.579 411.596 651.558 411.291 651.555 410.983 C 651.555 410.593 651.599 410.199 651.685 409.819 C 651.764 409.48 651.894 409.154 652.069 408.856 C 652.247 408.558 652.435 408.271 652.64 407.99 C 652.829 407.73 653.01 407.463 653.182 407.189 C 653.377 406.877 653.548 406.552 653.695 406.216 C 653.87 405.808 654.007 405.384 654.106 404.952 C 654.23 404.404 654.308 403.846 654.339 403.285 Z " fill="#e08f15"/><path d=" M 658.539 425.142 Q 661.862 423.522 661.945 422.235 C 662.028 420.947 660.408 419.119 658.872 419.161 C 657.335 419.203 655.412 420.453 655.549 422.235 Q 655.632 423.315 658.539 425.142 Z " fill="#e08f15"/><path d=" M 648.321 406.451 C 649.457 407.226 651.567 407.235 652.558 407.863 C 652.226 406.395 652.807 404.18 651.161 402.914 C 649.835 401.904 647.795 402.159 646.494 403.294 C 646.992 404.263 647.288 405.745 648.321 406.451 Z  M 647.491 403.294 Q 649.118 402.144 650.647 403.045 Q 652.402 404.078 651.81 406.285 C 648.846 406.965 647.397 405.563 647.491 403.294 Z " fill-rule="evenodd" fill="#e08f15"/><path d=" M 650.122 402.797 C 650.191 403.103 650.232 403.493 650.232 403.917 C 650.232 404.903 650.009 405.703 649.734 405.703 C 649.459 405.703 649.235 404.903 649.235 403.917 C 649.235 403.423 649.291 402.975 649.382 402.651 Q 649.755 402.666 650.122 402.797 Z " fill="#e08f15"/><path d=" M 669.09 406.451 C 667.954 407.226 665.844 407.235 664.853 407.863 C 665.185 406.395 664.604 404.18 666.25 402.914 C 667.576 401.904 669.616 402.159 670.917 403.294 C 670.419 404.263 670.123 405.745 669.09 406.451 Z  M 669.92 403.294 Q 668.293 402.144 666.764 403.045 Q 665.009 404.078 665.601 406.285 C 668.565 406.965 670.014 405.563 669.92 403.294 Z " fill-rule="evenodd" fill="#e08f15"/><path d=" M 667.289 402.797 C 667.22 403.103 667.179 403.493 667.179 403.917 C 667.179 404.903 667.402 405.703 667.677 405.703 C 667.952 405.703 668.176 404.903 668.176 403.917 C 668.176 403.423 668.12 402.975 668.029 402.651 Q 667.656 402.666 667.289 402.797 Z " fill="#e08f15"/><path d=" M 655.062 427.219 C 656.622 430.085 660.82 430.37 662.253 427.219 C 662.863 427.164 662.941 427.026 663.607 426.804 C 664.375 427.468 661.548 430.417 658.891 430.438 C 656.234 430.459 652.932 427.385 653.887 426.887 C 654.555 427.117 654.199 427.229 655.062 427.219 Z " fill="#e08f15"/><path d=" M 635.956 406.893 C 636.038 406.479 636.142 406.069 636.267 405.665 C 636.623 404.555 637.127 403.5 637.767 402.524 C 638.089 402.024 638.438 401.538 638.812 401.069 C 639.195 400.579 639.599 400.106 640.014 399.644 C 640.452 399.161 640.894 398.689 641.349 398.223 C 641.822 397.737 642.298 397.254 642.778 396.774 C 643.757 395.798 644.719 394.805 645.658 393.791 C 646.675 392.696 647.63 391.538 648.521 390.336 C 648.692 390.086 648.815 389.805 648.873 389.507 C 648.935 389.216 648.962 388.922 648.959 388.624 C 648.956 388.285 648.932 387.946 648.88 387.607 C 648.829 387.226 648.757 386.85 648.671 386.476 C 648.466 385.61 648.209 384.754 647.904 383.918 C 647.565 382.97 647.185 382.038 646.767 381.124 C 646.329 380.168 645.853 379.226 645.343 378.305 C 644.983 377.661 644.603 377.028 644.202 376.408 C 644.319 376.542 644.435 376.675 644.548 376.809 C 645.521 377.939 646.48 379.079 647.432 380.226 C 649.13 382.281 650.856 384.312 652.603 386.326 C 653.733 385.983 654.887 385.723 656.058 385.552 C 656.986 385.415 657.921 385.346 658.86 385.346 C 660.822 385.339 662.771 385.678 664.616 386.346 C 666.637 384.069 668.637 381.774 670.613 379.459 C 671.219 378.744 671.832 378.031 672.449 377.322 L 672.449 377.322 L 672.449 377.322 C 672.25 377.637 672.058 377.952 671.87 378.274 C 671.318 379.202 670.798 380.155 670.315 381.12 C 669.856 382.038 669.431 382.973 669.044 383.925 C 668.705 384.757 668.414 385.607 668.175 386.473 C 668.075 386.843 667.993 387.22 667.931 387.596 C 667.873 387.925 667.842 388.261 667.839 388.596 C 667.829 388.956 667.884 389.315 668 389.658 C 668.113 389.993 668.329 390.285 668.613 390.493 C 669.312 391.226 670.031 391.935 670.777 392.62 C 671.527 393.315 672.291 393.997 673.058 394.675 C 673.657 395.202 674.253 395.733 674.846 396.267 C 675.425 396.795 675.99 397.332 676.544 397.884 C 677.089 398.422 677.61 398.983 678.11 399.562 C 678.603 400.134 679.062 400.733 679.49 401.353 C 680.363 402.617 681.044 404 681.52 405.459 C 681.681 405.962 681.815 406.471 681.918 406.986 L 681.918 406.986 C 681.572 406.719 681.196 406.49 680.798 406.305 C 680.24 406.055 679.633 405.928 679.024 405.928 C 678.462 405.935 677.904 406.028 677.37 406.206 C 676.808 406.391 676.26 406.63 675.743 406.918 C 675.181 407.226 674.63 407.562 674.099 407.921 C 673.531 408.305 672.966 408.699 672.404 409.096 C 671.586 409.685 670.75 410.254 669.904 410.805 C 669.041 411.363 668.14 411.863 667.209 412.298 C 667.086 412.356 666.993 412.463 666.945 412.589 C 666.897 412.716 666.904 412.86 666.962 412.983 C 667.021 413.106 667.127 413.202 667.253 413.247 C 667.38 413.295 667.524 413.288 667.647 413.23 C 668.62 412.774 669.562 412.25 670.462 411.665 C 671.322 411.106 672.168 410.531 673.003 409.932 C 673.555 409.538 674.113 409.154 674.675 408.774 C 675.181 408.432 675.702 408.113 676.24 407.819 C 676.702 407.562 677.188 407.346 677.692 407.182 C 678.123 407.038 678.575 406.963 679.027 406.956 C 679.493 406.956 679.949 407.055 680.373 407.24 C 680.894 407.483 681.363 407.815 681.767 408.223 C 681.863 408.322 681.993 408.377 682.127 408.377 C 682.135 408.377 682.144 408.377 682.152 408.375 C 682.245 409.13 682.29 409.891 682.288 410.654 C 682.288 411.329 682.257 412.007 682.195 412.682 C 682.192 412.699 682.185 412.716 682.178 412.733 C 682.144 412.791 682.099 412.846 682.048 412.891 C 681.949 412.983 681.842 413.062 681.726 413.13 C 681.568 413.23 681.401 413.322 681.233 413.401 C 680.774 413.613 680.305 413.802 679.825 413.963 C 679.226 414.168 678.623 414.367 678.017 414.558 C 677.346 414.771 676.675 414.99 676.007 415.219 C 675.298 415.459 674.599 415.723 673.907 416.01 C 673.205 416.298 672.517 416.627 671.853 416.99 C 671.188 417.353 670.555 417.774 669.962 418.247 C 669.723 418.442 669.5 418.661 669.298 418.897 C 669.089 419.137 668.897 419.387 668.716 419.651 C 668.342 420.195 667.99 420.757 667.658 421.332 C 667.288 421.962 666.897 422.582 666.486 423.189 C 666.086 423.778 665.627 424.322 665.116 424.812 C 664.62 425.281 664.048 425.661 663.425 425.935 C 662.709 426.23 661.945 426.377 661.171 426.367 C 660.771 426.367 660.373 426.336 659.976 426.278 C 659.432 426.195 658.89 426.072 658.363 425.908 C 657.887 426.065 657.401 426.185 656.904 426.267 C 656.555 426.322 656.202 426.353 655.849 426.353 C 655.178 426.36 654.517 426.226 653.904 425.959 C 653.353 425.706 652.849 425.353 652.418 424.921 C 651.952 424.456 651.538 423.939 651.175 423.387 C 650.791 422.798 650.428 422.202 650.082 421.589 C 649.733 420.969 649.363 420.363 648.966 419.771 C 648.774 419.486 648.565 419.213 648.339 418.952 C 648.12 418.692 647.873 418.456 647.61 418.243 C 646.322 417.226 644.897 416.401 643.38 415.788 C 642.74 415.531 642.093 415.305 641.432 415.106 C 640.853 414.932 640.274 414.771 639.688 414.617 C 639.185 414.487 638.685 414.346 638.188 414.192 C 637.802 414.076 637.425 413.925 637.062 413.743 C 636.808 413.613 636.579 413.442 636.384 413.23 C 636.219 413.038 636.099 412.812 636.031 412.569 C 635.825 411.521 635.719 410.456 635.712 409.387 C 635.711 409.041 635.723 408.696 635.756 408.353 C 635.839 408.332 635.915 408.287 635.976 408.223 C 636.38 407.815 636.849 407.483 637.37 407.24 C 637.795 407.055 638.25 406.956 638.716 406.956 C 639.168 406.963 639.62 407.038 640.051 407.182 C 640.555 407.346 641.041 407.562 641.504 407.819 C 642.041 408.113 642.562 408.432 643.069 408.774 C 643.63 409.154 644.188 409.538 644.74 409.932 C 645.575 410.531 646.421 411.106 647.281 411.665 C 648.182 412.25 649.123 412.774 650.096 413.23 C 650.219 413.288 650.363 413.295 650.49 413.247 C 650.617 413.202 650.723 413.106 650.781 412.983 C 650.839 412.86 650.846 412.716 650.798 412.589 C 650.753 412.463 650.658 412.356 650.534 412.298 C 649.603 411.863 648.702 411.363 647.839 410.805 C 646.993 410.254 646.158 409.685 645.339 409.096 C 644.777 408.699 644.212 408.305 643.644 407.921 C 643.113 407.562 642.562 407.226 642 406.918 C 641.483 406.63 640.938 406.391 640.373 406.206 C 639.839 406.028 639.281 405.935 638.719 405.928 C 638.11 405.928 637.504 406.055 636.945 406.305 C 636.596 406.468 636.264 406.663 635.956 406.893 Z  M 679.556 372.972 L 679.556 372.972 C 680.152 374.262 680.605 375.615 680.904 377.004 C 681.281 378.768 681.462 380.562 681.452 382.363 C 681.452 383.494 681.39 384.62 681.274 385.744 C 681.147 386.959 680.969 388.165 680.736 389.363 C 680.483 390.658 680.185 391.946 679.836 393.22 C 679.459 394.596 679.038 395.963 678.572 397.312 L 678.52 397.461 C 678.269 397.192 678.013 396.928 677.753 396.668 C 677.178 396.1 676.592 395.545 675.997 395 C 675.397 394.459 674.794 393.922 674.192 393.387 C 673.431 392.72 672.678 392.045 671.935 391.36 C 671.127 390.617 670.349 389.843 669.603 389.041 C 669.562 388.908 669.548 388.771 669.551 388.63 C 669.555 388.38 669.575 388.13 669.62 387.88 C 669.671 387.559 669.743 387.24 669.829 386.925 C 670.048 386.127 670.315 385.339 670.63 384.572 C 671 383.661 671.404 382.764 671.846 381.887 C 672.312 380.956 672.812 380.041 673.342 379.148 C 673.856 378.278 674.404 377.428 674.99 376.603 C 675.497 375.877 676.048 375.185 676.64 374.524 C 676.887 374.254 677.147 373.99 677.418 373.744 C 677.637 373.538 677.873 373.35 678.12 373.179 C 678.301 373.052 678.493 372.946 678.699 372.863 C 678.812 372.815 678.931 372.792 679.055 372.788 C 679.12 372.788 679.181 372.809 679.236 372.846 L 679.236 372.846 C 679.333 372.913 679.441 372.959 679.556 372.972 L 679.556 372.972 L 679.556 372.972 Z  M 636.884 372.601 C 636.277 374.286 635.804 376.017 635.473 377.778 C 635.106 379.744 634.921 381.744 634.921 383.744 C 634.928 386.055 635.161 388.36 635.62 390.624 C 636.11 393.028 636.808 395.384 637.709 397.668 C 637.757 397.795 637.856 397.898 637.983 397.949 C 638.106 398.004 638.247 398.007 638.373 397.956 C 638.5 397.908 638.603 397.809 638.658 397.685 C 638.712 397.559 638.716 397.418 638.665 397.291 L 638.665 397.291 C 637.788 395.065 637.106 392.764 636.627 390.422 C 636.182 388.223 635.956 385.987 635.949 383.744 C 635.949 381.805 636.127 379.87 636.483 377.966 C 636.804 376.266 637.258 374.594 637.844 372.966 C 637.922 372.944 638.002 372.935 638.082 372.935 C 638.247 372.939 638.415 372.966 638.572 373.024 C 638.791 373.103 639.004 373.206 639.202 373.333 C 639.459 373.497 639.702 373.679 639.932 373.877 C 640.202 374.113 640.462 374.367 640.706 374.631 C 641.288 375.268 641.822 375.942 642.305 376.651 C 642.856 377.456 643.373 378.285 643.846 379.137 C 644.336 380.018 644.791 380.918 645.209 381.836 C 645.61 382.709 645.969 383.596 646.295 384.5 C 646.575 385.274 646.812 386.065 647.004 386.867 C 647.079 387.192 647.141 387.521 647.188 387.85 C 647.226 388.113 647.247 388.377 647.247 388.644 C 647.25 388.819 647.233 388.994 647.195 389.165 C 647.185 389.226 647.161 389.288 647.123 389.343 C 646.277 390.487 645.37 391.583 644.404 392.63 C 643.476 393.627 642.531 394.603 641.569 395.562 C 641.082 396.048 640.603 396.538 640.123 397.028 C 639.654 397.511 639.195 397.997 638.743 398.497 C 638.302 398.987 637.877 399.487 637.469 400.004 C 637.065 400.514 636.685 401.045 636.329 401.589 C 635.61 402.695 635.038 403.891 634.634 405.148 C 634.206 406.524 633.993 407.956 634 409.394 C 634.007 410.589 634.127 411.781 634.36 412.956 C 634.493 413.48 634.75 413.963 635.106 414.37 C 635.442 414.74 635.843 415.045 636.291 415.271 C 636.74 415.497 637.206 415.685 637.688 415.832 C 638.209 415.99 638.733 416.141 639.26 416.274 C 639.822 416.421 640.384 416.579 640.942 416.747 C 641.548 416.928 642.151 417.141 642.74 417.377 C 644.106 417.928 645.384 418.671 646.541 419.582 C 646.723 419.726 646.891 419.891 647.041 420.065 C 647.223 420.278 647.39 420.497 647.548 420.726 C 647.918 421.281 648.264 421.849 648.589 422.432 C 648.952 423.072 649.339 423.706 649.743 424.322 C 650.168 424.973 650.658 425.579 651.206 426.13 C 651.784 426.709 652.462 427.182 653.206 427.524 C 654.041 427.887 654.945 428.072 655.86 428.065 C 656.301 428.065 656.743 428.028 657.178 427.956 C 657.582 427.891 657.986 427.802 658.38 427.692 C 658.822 427.808 659.271 427.901 659.719 427.969 C 660.199 428.041 660.678 428.079 661.161 428.079 C 662.168 428.089 663.164 427.897 664.092 427.51 C 664.908 427.158 665.654 426.665 666.298 426.052 C 666.897 425.476 667.435 424.839 667.901 424.151 C 668.336 423.514 668.75 422.86 669.137 422.192 C 669.449 421.654 669.781 421.13 670.127 420.617 C 670.274 420.408 670.428 420.206 670.596 420.014 C 670.729 419.856 670.88 419.709 671.041 419.579 C 671.551 419.171 672.099 418.808 672.675 418.493 C 673.284 418.158 673.914 417.856 674.558 417.593 C 675.219 417.319 675.883 417.069 676.558 416.839 C 677.216 416.617 677.873 416.401 678.534 416.192 C 679.151 415.997 679.764 415.795 680.377 415.582 C 680.914 415.401 681.442 415.192 681.959 414.952 C 682.185 414.843 682.407 414.723 682.623 414.589 C 682.829 414.466 683.02 414.322 683.199 414.161 C 683.38 413.997 683.534 413.805 683.657 413.593 C 683.791 413.363 683.873 413.11 683.897 412.846 C 683.966 412.117 684 411.387 684 410.658 C 684.003 409.644 683.928 408.634 683.781 407.634 C 683.64 406.719 683.431 405.815 683.151 404.935 C 682.623 403.315 681.866 401.785 680.901 400.384 C 680.438 399.709 679.938 399.065 679.407 398.446 C 679.281 398.299 679.153 398.154 679.024 398.01 L 679.377 398.13 L 679.544 397.648 C 680.017 396.274 680.445 394.887 680.825 393.49 C 681.181 392.192 681.486 390.88 681.743 389.559 C 681.983 388.333 682.168 387.093 682.294 385.85 C 682.418 384.692 682.479 383.531 682.479 382.367 C 682.49 380.494 682.298 378.624 681.907 376.788 C 681.593 375.323 681.114 373.896 680.486 372.536 C 680.556 372.394 680.588 372.235 680.575 372.076 C 680.562 371.86 680.462 371.658 680.301 371.511 C 680 371.237 679.661 371.007 679.291 370.833 C 678.925 370.665 678.531 370.579 678.127 370.576 C 677.801 370.579 677.479 370.634 677.171 370.74 C 676.853 370.846 676.544 370.99 676.26 371.168 C 675.942 371.363 675.637 371.583 675.349 371.819 C 675.017 372.093 674.699 372.381 674.39 372.682 C 674.027 373.031 673.675 373.391 673.332 373.761 C 672.935 374.189 672.541 374.624 672.151 375.062 C 671.195 376.151 670.247 377.247 669.308 378.35 C 667.582 380.374 665.839 382.381 664.079 384.37 C 662.384 383.877 660.623 383.627 658.856 383.634 C 657.836 383.634 656.819 383.709 655.808 383.857 C 654.925 383.987 654.051 384.161 653.188 384.384 C 651.692 382.651 650.212 380.901 648.75 379.134 C 647.791 377.98 646.825 376.829 645.846 375.692 C 645.432 375.209 645.007 374.73 644.579 374.261 C 644.199 373.843 643.808 373.435 643.408 373.038 C 643.058 372.692 642.695 372.36 642.322 372.042 C 641.993 371.761 641.644 371.507 641.281 371.274 C 640.956 371.066 640.61 370.894 640.247 370.761 C 639.897 370.634 639.531 370.566 639.158 370.562 C 638.754 370.562 638.353 370.651 637.986 370.822 C 637.61 371.004 637.271 371.25 636.986 371.552 C 636.856 371.685 636.774 371.86 636.754 372.045 C 636.733 372.23 636.774 372.418 636.87 372.579 C 636.874 372.587 636.879 372.594 636.884 372.601 L 636.884 372.601 L 636.884 372.601 Z " fill-rule="evenodd" fill="#e08f15"/><path d=" M 663.274 401.417 C 664.131 399.819 665.618 399.138 667.727 399.363 C 665.9 399.591 664.419 400.279 663.274 401.417 Z " fill="#e08f15"/><path d=" M 654.028 401.417 C 653.172 399.819 651.684 399.138 649.576 399.363 C 651.402 399.591 652.883 400.279 654.028 401.417 Z " fill="#e08f15"/></g></svg>