<svg xmlns="http://www.w3.org/2000/svg" fill="rgb(182, 0, 0)" data-name="Layer 1" viewBox="0 0 512 640" x="0px" y="0px"><title>Lion</title>
<path d="M425.559,84.966a253.924,253.924,0,0,0-42.866-25.908l12.812-14.785a6,6,0,0,0-.772-8.6c-24.665-19.854-57.488-27.45-94.919-21.965a191.706,191.706,0,0,0-46.045,12.847c-53.948-34.418-134.917,8.033-138.4,9.889a6,6,0,0,0-.637,10.2l15.257,10.769c-28.308,13.976-62.319,36.358-80.854,68.861-12.718,22.3-12.121,38.907-12.089,39.6a6,6,0,0,0,5.365,5.694l19.151,2.017c-23.571,78.5-9.712,148.829-9.093,151.87a6,6,0,0,0,10.762,2.29l10.127-14.178c4.436,59.614,45.8,98.235,47.739,100.008a6,6,0,0,0,9.823-2.774l5.714-20c18.06,44.6,56.585,77.086,58.436,78.629a6,6,0,0,0,9.087-1.7l8.114-14.607c15.665,30.23,40.855,45.385,42.04,46.085a6,6,0,0,0,6.323-.135c19.781-12.858,32.739-35.7,39.234-49.664l9.3,16.907a6,6,0,0,0,8.68,2.037c34.248-23.783,50.905-58.319,58.365-79.559l7.693,22.31a6,6,0,0,0,9.526,2.643c22.131-18.543,36.975-45.075,42.925-76.729a168.39,168.39,0,0,0,2.73-23.941l12.546,16.237a6,6,0,0,0,10.721-3.1c7.641-80.768-5.664-133.4-12.342-153.69l18.3,1.831a6,6,0,0,0,6.592-5.72C476.126,139.265,459.063,110.334,425.559,84.966Zm16.111,74.662A6,6,0,0,0,435.576,168c.061.141,6.155,14.3,11,40.618,6.77,36.761,6.806,73.234,5.046,101.055L437.47,291.358a6,6,0,0,0-10.707,4.364c.074.646,6.6,62.035-34.484,102.848l-10.944-31.738a6,6,0,0,0-11.571.858c-.1.552-10.381,53.435-53.376,86.849L304.375,432.7a6,6,0,0,0-10.928.932c-.127.368-12.5,35.494-36.159,53.154-7.853-5.559-28.452-22.121-38.856-49.174a6,6,0,0,0-5.181-3.831c-.141-.009-.281-.014-.421-.014a6,6,0,0,0-5.244,3.086L197.336,455.3C184.307,443,151.631,408.93,142.126,368.8a6,6,0,0,0-11.607-.266l-8.238,28.83C109.147,382.189,82.2,344.705,85.216,295.394a6,6,0,0,0-10.871-3.854l-12.218,17.1c-2.911-25.329-5.864-80.628,13.06-138.395a6,6,0,0,0-5.074-7.835l-20.669-2.177c.821-5.867,3.28-16.307,10.608-28.876C79.265,98.408,116.485,76.488,144.326,63.9a6,6,0,0,0,.988-10.369L130.052,42.76c22.392-9.863,81.378-31.389,119.69-4.466a6.011,6.011,0,0,0,6.054.5,176.9,176.9,0,0,1,46.087-13.26c31.868-4.6,58.86.694,80.344,15.742L368.345,57.29a6,6,0,0,0,2.263,9.483c.916.375,88.434,36.883,92.229,94.972Z"/><path d="M181.64,229.226a12.309,12.309,0,1,0-12.308-12.308A12.322,12.322,0,0,0,181.64,229.226Zm0-12.617a.309.309,0,1,1-.308.309A.309.309,0,0,1,181.64,216.609Z"/><path d="M330.387,204.609a11.679,11.679,0,1,0,11.679,11.679A11.693,11.693,0,0,0,330.387,204.609Zm0,12a.321.321,0,1,1,.321-.321A.321.321,0,0,1,330.387,216.609Z"/><path d="M346.693,146.478,166.706,145h-.243a30.982,30.982,0,0,0-30.75,27.208c-3.408,28.107-2.653,64.764,1.836,89.07a6.31,6.31,0,0,0,.179.742c.425,1.349,10.07,31.213,31.549,42.777a85.433,85.433,0,0,0,.784,30.158c1.429,7.581,9.381,21.223,29.454,23.354,1.925,11.85,9.887,29.55,31.08,36.172a6.4,6.4,0,0,0,1.789.519h47.888c.266,0,.531-.262.793-.3a40.719,40.719,0,0,0,16.107-6.919c6.854-4.777,15.466-13.871,19.06-30.2,8.351-2.263,26.311-8.673,29.722-22.315.04-.161.074-.34.1-.5a91.519,91.519,0,0,0-.724-33.774c8.177-4.713,25.268-16.442,29.7-34.159a6.277,6.277,0,0,0,.131-.691c3.29-25.588,4.19-62.027,2.237-90.595A31.254,31.254,0,0,0,346.693,146.478ZM279.774,383H233.333c-15.688-6-20.347-18.194-21.73-25.242,15.653-3.748,33.453-15.57,48.825-28.436,2.539,1.867,4.794,3.424,6.614,4.712,6.647,4.7,25.738,18.141,37,23.113C298.486,378.375,282.414,382,279.774,383Zm-19.965-69.368C254,309.178,248.35,305,243.276,300h26.461a39.231,39.231,0,0,0,4.146-.162C269.925,304.021,265.172,308.781,259.809,313.632ZM306.1,349.214c.008-.013.018-.021.027-.034-.008.012-.014.026-.022.037Zm57.2-84.974c-4.563,17.261-27.2,28.085-27.418,28.189a6,6,0,0,0-3.261,6.979,79.391,79.391,0,0,1,1.633,33.126c-2.064,7.255-16.675,12.525-23.933,14.084-5.243-1.868-22.671-12.529-40.664-25.535,15.209-14.018,26.519-27.741,28.25-32.741.046-.135.327-.264.366-.395A38.836,38.836,0,0,0,309,261.48V201.022a5.741,5.741,0,0,1,4.3-5.823c10.19-2.28,19.8-1.577,32.438,2.358a5.934,5.934,0,0,0,7.451-3.945,6.017,6.017,0,0,0-3.975-7.512c-14.584-4.541-26.3-5.346-38.521-2.611A17.827,17.827,0,0,0,297,201.022V261.48c0,14.76-12.5,26.52-27.263,26.52H242.919A26.717,26.717,0,0,1,216,261.48V201.319a18,18,0,0,0-14.008-17.572c-14.288-3.133-26.286-2.275-38.987,2.78a6.005,6.005,0,0,0,4.467,11.149c10.477-4.171,19.982-4.83,31.945-2.208A5.94,5.94,0,0,1,204,201.319V261.48a38.744,38.744,0,0,0,13.332,29.155c7.527,10.091,21.349,21.879,33.179,31.094-17.979,14.749-34.087,23.517-45.859,24.86-19.383-.15-22.531-12.533-22.814-13.88-.012-.065-.02-.131-.034-.2a75.528,75.528,0,0,1,.033-30.109,6,6,0,0,0-3.74-6.716c-18.152-6.983-27.727-33.72-28.822-36.94-4.228-23.245-4.909-58.215-1.649-85.094A18.986,18.986,0,0,1,166.465,157h.149L346.6,158.478a19.2,19.2,0,0,1,18.822,17.883C367.319,204.089,366.466,239.372,363.3,264.24Z"/></svg>