<svg xmlns="http://www.w3.org/2000/svg" xmlns:xlink="http://www.w3.org/1999/xlink" xml:space="preserve" version="1.1" style="shape-rendering:geometricPrecision;text-rendering:geometricPrecision;image-rendering:optimizeQuality;" viewBox="0 0 333 333" x="0px" y="0px" fill-rule="evenodd" clip-rule="evenodd"><defs><style type="text/css">
   
    .fil0 {fill:black}
   
  </style></defs><g><path class="fil0" d="M283 136c10,15 16,32 16,50 0,60 -62,108 -139,108 -77,0 -139,-48 -139,-108 0,-19 6,-37 18,-53 -17,-7 -30,-22 -25,-44 1,-5 -6,1 -6,-1 0,-13 13,-30 26,-37 2,-1 -9,1 -7,-1 9,-7 20,-11 32,-11 21,0 39,12 47,30 16,-8 34,-12 54,-12 24,0 47,7 65,18 6,-20 26,-36 49,-36 12,0 24,4 33,11 1,2 -10,0 -8,1 13,7 26,24 26,37 0,2 -6,-4 -5,1 6,27 -15,44 -37,47zm17 -61c-19,-15 -40,-9 -46,16 -2,-3 -4,-5 -6,-8 10,-33 40,-33 52,-8zm-221 13c2,-2 4,-4 6,-6 -10,-32 -39,-32 -52,-7 18,-14 39,-10 46,13zm50 140c13,5 23,2 31,-5 8,7 17,10 30,5 -4,17 -14,27 -30,28 -16,-1 -26,-11 -31,-28zm8 7c1,2 2,5 4,7 2,-2 5,-3 8,-3 5,0 8,2 11,5 2,-3 6,-5 10,-5 3,0 6,1 9,3 1,-2 3,-5 4,-7 -8,1 -16,-1 -23,-6 -7,5 -15,7 -23,6zm23 -70c16,0 29,3 29,10 0,7 -13,27 -29,27 -16,0 -29,-20 -29,-27 0,-7 13,-10 29,-10zm-57 -66c9,-5 13,-7 24,-8 -10,-9 -16,-3 -24,8zm114 0c-9,-5 -13,-7 -25,-8 11,-9 16,-3 25,8zm-6 10c7,10 4,14 13,29 6,10 13,21 14,30 1,15 -6,24 -14,27 -4,-6 -5,-12 -12,-19 17,-18 7,-54 -15,-54 -4,0 -7,1 -10,2 2,-6 6,-12 13,-18 7,-5 6,-5 11,3zm-11 58c-7,0 -12,-7 -12,-15 0,-8 5,-15 12,-15 7,0 13,7 13,15 0,8 -6,15 -13,15zm-3 -18c-2,0 -5,-2 -5,-5 0,-3 3,-5 5,-5 3,0 5,2 5,5 0,3 -2,5 -5,5zm-78 18c-6,0 -12,-7 -12,-15 0,-8 6,-15 12,-15 7,0 13,7 13,15 0,8 -6,15 -13,15zm-3 -18c-2,0 -4,-2 -4,-5 0,-3 2,-5 4,-5 3,0 5,2 5,5 0,3 -2,5 -5,5zm-7 -40c-7,10 -4,14 -13,29 -6,10 -13,21 -14,30 -1,15 6,24 14,27 3,-6 4,-12 12,-19 -18,-18 -8,-54 15,-54 4,0 7,1 10,2 -2,-6 -7,-12 -13,-18 -7,-5 -7,-5 -11,3zm145 9c-20,-33 -56,-52 -94,-52 -38,0 -75,19 -94,52l-1 1 -1 1c-20,17 -34,40 -34,66 0,8 1,15 3,22 7,23 24,42 45,54 24,16 53,23 82,23 29,0 58,-7 82,-23 20,-12 38,-31 44,-54 3,-7 4,-14 4,-22 0,-26 -14,-49 -34,-66l-2 -1 0 -1z"/></g></svg>