<svg xmlns="http://www.w3.org/2000/svg" viewBox="0 0 100 125" x="0px" y="0px">
<path d="M76,40l0,0c-1.2-3.48-2.25-6-2.63-6.82-.06-10-2.75-17.59-8-22.48A22.07,22.07,0,0,0,50,5,22.07,22.07,0,0,0,34.59,10.7c-5.26,4.88-8,12.45-8,22.48C26.2,34,25.15,36.51,24,40l0,0C23.78,40.25,9.74,62,4.74,66.48a1.5,1.5,0,0,0-.14,2.08c.14.17,2.46,2.81,7.42,2.81a19.19,19.19,0,0,0,7.21-1.58,29.8,29.8,0,0,0,4.3,13.67C28.47,91.11,37.36,95,50,95s21.49-3.88,26.42-11.54a29.8,29.8,0,0,0,4.3-13.67,19.19,19.19,0,0,0,7.21,1.59c5,0,7.29-2.64,7.42-2.81a1.5,1.5,0,0,0-.14-2.08C90.17,62,76.13,40.25,76,40ZM29.58,33.5c0-9.3,2.36-16.22,7-20.57A19.32,19.32,0,0,1,49.37,8h.7A19.19,19.19,0,0,1,63.27,12.9c4.68,4.35,7.05,11.28,7.05,20.6a1.51,1.51,0,0,0,.13.62,101.64,101.64,0,0,1,5.4,16.47A34.14,34.14,0,0,0,59.65,38.17l1.27-1a3.1,3.1,0,0,0-.72-5.36l-7.54-3a7.23,7.23,0,0,0-5.42,0l-7.54,3A3.11,3.11,0,0,0,39,37.2l1.26,1A34.1,34.1,0,0,0,24.06,50.51a101.59,101.59,0,0,1,5.39-16.39A1.51,1.51,0,0,0,29.58,33.5ZM40.8,34.81a.09.09,0,0,1,0-.1.09.09,0,0,1,.06-.08l7.54-3a4.23,4.23,0,0,1,3.18,0l7.54,3a.09.09,0,0,1,.07.08.09.09,0,0,1,0,.1l-6.59,5a4.27,4.27,0,0,1-5.14,0ZM8,67.44c3.48-3.78,9-11.68,13.12-17.75a69.36,69.36,0,0,0-2.06,16.9C13.13,69.29,9.63,68.34,8,67.44ZM73.85,81.83C69.5,88.58,61.46,92,50,92s-19.55-3.42-23.9-10.17C22,75.53,21.54,67.07,22.52,59c.83-1.87,7.11-15.13,20.67-18.63h0l2.38,1.8a7.28,7.28,0,0,0,8.76,0l2.36-1.79C70.66,44,76.91,58,77.41,59.17,78.37,67.17,77.9,75.57,73.85,81.83Zm7-15.24a69.36,69.36,0,0,0-2.06-16.9c4.1,6.07,9.64,14,13.11,17.75C90.27,68.34,86.76,69.29,80.85,66.59Z"/><path d="M59.34,27.49a1.5,1.5,0,0,0,1.5-1.5V23.5a1.5,1.5,0,1,0-3,0V26A1.5,1.5,0,0,0,59.34,27.49Z"/><path d="M41,27.49a1.5,1.5,0,0,0,1.5-1.5V23.5a1.5,1.5,0,1,0-3,0V26A1.5,1.5,0,0,0,41,27.49Z"/></svg>